 <svg  version="1.0" xmlns="http://www.w3.org/2000/svg"  width="900.000000pt" height="210.000000pt" viewBox="0 0 900.000000 210.000000"  preserveAspectRatio="xMidYMid meet">  <g transform="translate(0.000000,210.000000) scale(0.100000,-0.100000)" fill="#000000" stroke="none"> <path d="M0 1050 l0 -1050 4500 0 4500 0 0 105 c0 106 -7 124 -37 94 -17 -17 -33 -1 -33 32 0 22 5 29 20 29 11 0 20 -4 20 -10 0 -5 7 -10 15 -10 12 0 15 17 15 95 0 96 -8 113 -37 84 -16 -16 -33 -2 -33 27 0 21 5 24 35 24 33 0 35 2 35 35 0 36 -15 46 -37 24 -16 -16 -33 -2 -33 26 0 32 17 41 39 21 23 -21 31 -12 31 36 0 41 -14 49 -36 21 -12 -17 -14 -17 -30 -1 -11 11 -15 24 -10 42 6 26 29 35 41 16 15 -24 35 -9 35 26 0 36 0 36 -35 30 -28 -6 -37 -3 -42 10 -8 21 11 50 29 45 7 -2 21 -6 30 -8 15 -5 17 9 17 141 l1 147 -35 -7 c-34 -6 -35 -5 -35 24 0 37 13 48 33 27 26 -26 37 -17 37 30 0 48 -19 62 -39 28 -9 -16 -12 -16 -21 -3 -15 23 -12 70 4 70 8 0 18 -5 21 -10 3 -6 13 -10 21 -10 12 0 14 26 13 150 0 117 -3 150 -13 150 -8 0 -19 -7 -26 -15 -11 -14 -15 -14 -29 -1 -11 10 -21 12 -31 6 -25 -16 -47 -11 -53 11 -12 46 19 65 50 30 16 -19 16 -19 33 1 15 19 17 19 32 4 32 -31 38 -19 38 79 l0 94 -37 -2 c-34 -2 -38 0 -38 23 0 23 4 25 38 23 36 -2 37 -2 37 32 0 36 -15 46 -38 23 -19 -19 -46 14 -38 46 6 26 29 35 41 16 3 -5 13 -10 21 -10 11 0 14 20 14 105 l0 105 -4500 0 -4500 0 0 -1050z m2631 838 l11 -21 17 22 c15 19 21 21 46 11 19 -7 31 -8 39 0 21 21 36 10 36 -24 0 -39 -14 -53 -34 -36 -8 6 -26 8 -40 4 -15 -3 -32 -1 -40 6 -12 9 -20 8 -40 -5 -14 -10 -33 -15 -41 -11 -15 5 -21 56 -8 69 14 14 43 6 54 -15z m238 5 c9 -16 11 -16 31 2 20 18 23 19 34 3 11 -15 15 -15 40 -3 35 18 46 12 46 -25 0 -35 -13 -45 -41 -29 -17 8 -27 8 -46 -2 -22 -12 -26 -11 -34 4 -9 16 -12 16 -41 1 -31 -16 -47 -9 -48 23 0 41 40 59 59 26z m292 8 c4 -1 10 -8 13 -17 10 -25 -14 -46 -48 -43 -17 2 -37 0 -44 -5 -19 -11 -32 2 -32 33 0 15 2 30 4 32 4 4 82 4 107 0z m89 -6 c25 -13 29 -13 34 0 11 30 36 17 36 -19 0 -39 -14 -53 -35 -36 -8 7 -27 9 -48 5 -39 -8 -55 12 -37 46 13 23 13 23 50 4z m152 -2 c17 -15 19 -15 38 2 16 14 23 15 34 6 11 -9 20 -10 36 -1 31 17 50 5 50 -29 0 -38 -14 -46 -51 -31 -21 9 -33 10 -41 2 -7 -7 -16 -7 -29 1 -13 8 -24 8 -42 -2 -32 -17 -47 -8 -47 28 0 44 20 53 52 24z m223 7 c6 -10 22 -8 62 7 6 3 17 -5 23 -17 17 -31 -5 -53 -46 -47 -17 3 -36 1 -42 -5 -16 -16 -32 0 -32 31 0 38 20 55 35 31z m155 -2 c16 -10 24 -10 40 0 27 17 40 8 40 -28 0 -36 -13 -45 -40 -28 -16 10 -24 10 -40 0 -11 -6 -24 -12 -29 -12 -14 0 -21 41 -10 62 12 21 13 22 39 6z m183 -5 c9 -3 17 0 17 6 0 17 27 13 34 -4 5 -14 9 -14 36 0 35 18 50 13 50 -18 0 -40 -12 -48 -48 -35 -24 9 -35 9 -43 1 -9 -9 -16 -9 -30 0 -13 8 -24 8 -44 -3 -23 -12 -28 -12 -35 0 -12 18 -13 54 -3 64 4 4 17 4 28 1 11 -4 28 -9 38 -12z m205 5 c8 -8 15 -8 26 1 22 18 58 -4 54 -32 -2 -18 -10 -22 -39 -22 -20 0 -43 -6 -51 -12 -20 -17 -28 -7 -28 39 0 39 15 49 38 26z m150 0 c9 -9 18 -9 37 0 34 15 45 8 45 -28 0 -36 -11 -43 -45 -28 -20 9 -31 9 -45 1 -22 -15 -30 -7 -30 27 0 39 15 51 38 28z m156 1 c20 -9 29 -9 41 1 13 11 19 11 32 -3 14 -14 18 -14 39 0 30 19 54 11 54 -19 0 -41 -12 -50 -50 -36 -26 8 -35 9 -38 0 -5 -16 -29 -15 -35 1 -3 9 -11 9 -37 0 -18 -7 -37 -10 -41 -7 -16 9 -9 74 7 74 2 0 14 -5 28 -11z m234 -1 c8 -8 15 -8 26 1 20 16 56 -2 56 -29 0 -27 -36 -45 -56 -29 -11 9 -18 9 -26 1 -22 -22 -38 -13 -38 21 0 46 14 59 38 35z m147 -4 c11 -15 14 -15 38 1 14 9 30 14 35 11 16 -10 20 -44 8 -62 -12 -16 -14 -15 -40 1 -25 17 -28 17 -45 0 -18 -16 -20 -16 -30 3 -11 21 -4 62 12 62 5 0 15 -7 22 -16z m157 -1 c17 -15 19 -15 36 0 25 23 39 21 45 -5 8 -29 -11 -64 -26 -49 -14 14 -54 14 -62 1 -18 -29 -47 12 -34 48 10 26 17 27 41 5z m197 -5 c12 -33 -4 -58 -38 -58 -39 0 -66 31 -51 59 16 31 77 29 89 -1z m86 -13 c0 -25 -4 -30 -25 -30 -19 0 -26 6 -28 24 -4 25 13 43 38 38 9 -1 15 -13 15 -32z m79 24 c20 -9 29 -9 40 0 21 18 36 5 36 -29 0 -36 -13 -45 -40 -28 -16 10 -24 10 -40 0 -12 -7 -25 -10 -30 -7 -17 10 -11 75 6 75 2 0 14 -5 28 -11z m166 -10 c14 -26 -4 -51 -34 -47 -21 3 -32 28 -22 54 8 21 44 17 56 -7z m65 2 c3 -10 1 -31 -5 -47 -11 -28 -12 -28 -26 -10 -15 22 -17 36 -8 60 8 22 31 20 39 -3z m84 2 c10 -17 12 -17 25 0 19 24 33 21 40 -10 5 -18 2 -31 -9 -42 -15 -15 -17 -15 -26 1 -8 14 -14 15 -34 6 -30 -13 -55 -4 -55 20 0 38 41 55 59 25z m145 -5 c14 -20 14 -24 -1 -40 -21 -24 -40 -23 -53 2 -8 14 -8 26 0 40 14 26 35 25 54 -2z m76 10 c16 -10 24 -10 40 0 31 19 40 14 40 -22 0 -41 -12 -51 -40 -34 -16 10 -24 10 -40 0 -26 -16 -27 -16 -40 8 -8 14 -8 26 0 40 13 24 14 24 40 8z m166 -9 c19 -21 18 -21 -5 -40 -29 -24 -45 -20 -49 10 -8 51 21 67 54 30z m69 1 c7 -22 -2 -60 -14 -60 -18 0 -32 29 -25 54 7 31 30 34 39 6z m70 8 c19 -9 28 -9 37 0 24 24 38 13 38 -28 0 -41 -14 -52 -37 -29 -8 8 -17 8 -29 1 -25 -14 -54 3 -54 32 0 20 7 36 16 36 2 0 15 -5 29 -12z m165 -3 c12 -14 15 -14 31 1 16 14 18 14 30 -7 l12 -24 10 23 c11 23 45 30 64 11 8 -8 16 -7 31 2 16 10 23 10 36 0 11 -9 20 -10 35 -2 31 17 49 13 57 -11 l7 -23 10 21 c8 19 17 22 66 20 54 -2 56 -3 59 -30 5 -38 -8 -49 -43 -36 -20 8 -31 7 -41 -1 -11 -9 -19 -8 -33 5 -16 14 -20 15 -30 2 -10 -11 -19 -12 -42 -4 -21 7 -33 7 -44 -2 -10 -8 -19 -8 -34 -1 -14 8 -28 8 -47 1 -21 -8 -31 -7 -46 6 -17 16 -19 16 -31 0 -11 -16 -15 -16 -25 -3 -10 12 -18 13 -42 4 -37 -14 -55 0 -46 37 7 29 36 35 56 11z m537 0 c19 -13 22 -13 27 0 7 20 32 19 41 -2 6 -17 7 -17 21 2 12 17 18 18 45 8 23 -9 35 -9 49 -1 14 9 22 9 33 0 11 -10 21 -10 41 -1 22 10 29 9 45 -5 18 -17 20 -17 30 1 8 14 14 16 28 7 12 -7 27 -8 42 -2 35 13 51 3 51 -32 0 -35 -19 -47 -50 -30 -16 9 -25 8 -36 -1 -12 -10 -18 -9 -31 4 -16 15 -18 15 -35 0 -15 -13 -22 -14 -48 -3 -22 9 -34 10 -42 2 -7 -7 -16 -7 -29 1 -13 8 -24 8 -44 -1 -20 -9 -30 -9 -45 0 -15 10 -22 10 -31 1 -9 -9 -16 -9 -30 0 -13 8 -24 8 -44 -1 -33 -15 -45 -8 -45 27 0 44 19 53 57 26z m533 5 c14 -8 25 -7 40 2 15 9 22 10 31 1 9 -9 16 -9 30 0 13 8 24 8 44 -1 22 -10 30 -10 42 0 12 9 19 9 35 -1 11 -7 24 -9 31 -4 7 5 34 9 61 8 53 0 75 -18 62 -50 -6 -16 -16 -17 -81 -12 -41 3 -77 1 -80 -4 -3 -5 -14 -3 -25 3 -14 9 -25 9 -45 0 -22 -10 -30 -10 -42 0 -12 9 -19 9 -35 -1 -17 -11 -22 -10 -29 0 -7 11 -14 11 -40 2 -41 -16 -49 -10 -49 33 0 36 14 43 50 24z m446 0 c19 -8 30 -7 41 2 12 10 18 9 29 -7 18 -24 18 -39 -1 -55 -12 -10 -18 -10 -30 0 -11 9 -22 9 -45 2 -26 -9 -31 -8 -40 9 -8 13 -7 25 0 39 12 23 11 23 46 10z m161 -1 c8 -8 17 -7 31 2 12 7 23 11 25 9 14 -15 15 -49 3 -65 -11 -16 -17 -17 -29 -7 -11 9 -22 10 -43 2 -39 -15 -63 8 -46 45 12 26 40 33 59 14z m153 -10 c9 -15 8 -24 -1 -35 -28 -33 -80 -3 -59 35 6 12 19 21 30 21 11 0 24 -9 30 -21z m151 -2 c7 -11 6 -24 -1 -37 -12 -23 -23 -25 -51 -9 -15 8 -24 7 -36 -2 -13 -11 -18 -10 -29 6 -8 11 -12 26 -9 33 3 8 5 17 5 21 0 4 25 7 56 6 41 0 58 -5 65 -18z m65 13 c8 -8 20 -7 39 0 23 9 32 8 44 -4 13 -14 17 -14 33 1 15 13 22 14 45 4 18 -8 29 -9 37 -1 17 17 34 11 40 -17 9 -34 -15 -63 -37 -44 -11 8 -22 9 -42 1 -22 -8 -31 -7 -45 5 -15 13 -19 14 -29 1 -9 -10 -20 -12 -40 -6 -16 4 -39 6 -53 3 -30 -6 -43 18 -28 48 12 21 21 24 36 9z m324 -9 c20 -39 -20 -72 -57 -46 -15 11 -15 17 -5 39 14 31 47 34 62 7z m66 9 c8 -8 19 -7 39 2 24 11 29 10 41 -7 19 -26 18 -42 -5 -55 -14 -7 -27 -7 -45 1 -19 9 -29 9 -40 0 -12 -10 -17 -9 -25 7 -20 38 8 79 35 52z m-697 -122 c12 -33 -4 -61 -28 -49 -10 6 -27 8 -38 5 -22 -6 -56 21 -50 40 2 6 22 11 45 11 22 0 44 3 48 8 11 11 14 9 23 -15z m-5484 -9 c9 -28 -13 -50 -43 -43 -16 5 -22 14 -22 35 0 25 4 29 29 29 21 0 32 -6 36 -21z m143 -13 c-2 -22 -7 -30 -18 -27 -8 3 -34 4 -56 3 -29 -1 -44 2 -48 13 -12 33 4 43 65 42 l60 0 -3 -31z m93 18 c11 -14 13 -14 21 0 11 19 38 21 62 3 30 -22 -3 -46 -61 -44 -56 3 -73 11 -73 38 0 23 32 26 51 3z m141 -32 c-3 -9 -8 -10 -18 -1 -17 14 -18 36 -1 42 14 5 27 -22 19 -41z m74 33 c7 -18 -14 -47 -27 -39 -5 3 -9 16 -9 30 0 27 27 34 36 9z m82 -2 c13 -26 4 -43 -24 -43 -26 0 -40 20 -30 45 8 21 43 19 54 -2z m150 -17 c-2 -22 -7 -30 -18 -27 -8 3 -34 4 -57 3 -45 -2 -58 7 -49 36 5 15 17 19 67 19 l60 0 -3 -31z m237 17 c2 -7 2 -20 -2 -28 -5 -14 -8 -14 -24 1 -18 16 -20 16 -32 0 -13 -17 -26 -19 -85 -13 -37 4 -57 20 -50 39 7 18 186 19 193 1z m68 3 c3 -8 0 -22 -8 -33 -13 -17 -14 -17 -20 0 -8 20 0 47 14 47 5 0 11 -6 14 -14z m82 -16 c0 -19 -6 -26 -24 -28 -29 -4 -43 15 -30 41 15 28 54 19 54 -13z m153 -4 c-2 -25 -7 -30 -23 -27 -11 2 -36 4 -55 4 -38 0 -50 10 -43 36 3 13 17 16 64 17 l60 1 -3 -31z m175 15 c18 -19 -28 -54 -53 -41 -10 6 -25 7 -34 4 -16 -6 -60 32 -52 45 8 12 125 6 139 -8z m65 -14 c2 -19 -1 -27 -12 -27 -18 0 -40 36 -31 51 13 19 40 4 43 -24z m62 8 c0 -26 -14 -33 -25 -15 -9 14 1 40 15 40 5 0 10 -11 10 -25z m88 -7 c3 -25 0 -28 -27 -28 -33 0 -43 16 -29 43 15 28 52 18 56 -15z m152 2 c0 -28 -1 -28 -60 -27 -58 0 -60 1 -60 26 0 25 2 26 60 28 59 1 60 1 60 -27z m67 19 c9 -9 20 -9 44 1 27 12 33 11 43 -2 11 -15 13 -15 22 0 14 21 44 9 44 -18 0 -25 -25 -37 -44 -21 -7 6 -16 7 -20 3 -4 -4 -32 -7 -62 -7 -43 0 -55 4 -60 17 -10 32 11 49 33 27z m241 -13 c4 -19 -16 -39 -30 -30 -4 3 -8 16 -8 30 0 19 5 25 17 22 10 -2 19 -12 21 -22z m77 -6 c0 -20 -6 -26 -28 -28 -32 -4 -46 20 -26 44 19 24 54 14 54 -16z m73 4 c2 -11 -3 -26 -11 -32 -20 -17 -41 9 -32 38 8 27 39 22 43 -6z m80 -6 c3 -24 0 -28 -23 -28 -27 0 -41 20 -31 46 10 27 51 13 54 -18z m66 17 c7 -18 -2 -45 -15 -45 -13 0 -22 27 -15 45 3 8 10 15 15 15 5 0 11 -7 15 -15z m94 -8 c6 -30 -16 -48 -44 -35 -27 12 -30 28 -12 46 18 18 52 11 56 -11z m115 4 c8 -33 -6 -42 -49 -33 -51 10 -59 39 -12 45 18 2 38 5 44 5 7 1 14 -7 17 -17z m85 -13 c3 -24 0 -28 -23 -28 -27 0 -41 20 -31 46 10 27 51 13 54 -18z m80 5 c2 -13 -4 -26 -16 -32 -24 -13 -32 -5 -32 31 0 25 4 29 23 26 14 -2 23 -11 25 -25z m72 -3 c0 -20 -5 -30 -15 -30 -10 0 -15 10 -15 30 0 20 5 30 15 30 10 0 15 -10 15 -30z m88 -1 c2 -20 -2 -28 -19 -32 -29 -8 -39 -1 -39 27 0 29 9 38 35 34 13 -2 21 -12 23 -29z m62 0 c0 -38 -24 -35 -28 4 -2 19 1 27 12 27 11 0 16 -10 16 -31z m95 11 c7 -23 -1 -40 -19 -40 -14 0 -29 38 -20 52 10 15 33 8 39 -12z m58 1 c2 -10 0 -26 -5 -35 -8 -14 -13 -15 -24 -5 -15 12 -19 41 -7 52 12 13 31 7 36 -12z m82 -11 c0 -18 -6 -26 -23 -28 -13 -2 -25 3 -28 12 -10 26 4 48 28 44 17 -2 23 -10 23 -28z m83 3 c5 -31 -33 -51 -48 -24 -14 27 -2 53 24 49 13 -2 22 -11 24 -25z m72 -3 c0 -37 -26 -41 -32 -5 -6 27 -1 35 19 35 8 0 13 -12 13 -30z m88 6 c5 -23 -23 -47 -44 -39 -15 5 -19 44 -7 57 13 13 48 1 51 -18z m67 -6 c0 -16 -6 -26 -17 -28 -14 -3 -18 3 -18 28 0 25 4 31 18 28 11 -2 17 -12 17 -28z m83 18 c9 -9 15 -9 24 0 23 23 39 14 36 -20 -2 -24 -7 -32 -18 -29 -8 2 -26 4 -39 5 -14 1 -27 9 -31 21 -12 33 5 46 28 23z m151 -2 c17 -20 2 -46 -25 -46 -26 0 -40 20 -30 45 7 19 40 20 55 1z m68 -30 c-4 -9 -13 -16 -21 -16 -19 0 -29 30 -15 47 11 12 14 12 27 -1 8 -8 12 -22 9 -30z m228 14 c0 -22 -5 -25 -40 -28 -22 -1 -49 -2 -60 -1 -11 0 -39 0 -63 0 -29 -1 -44 3 -48 14 -14 35 1 41 107 40 l104 0 0 -25z m150 0 c0 -23 -4 -25 -47 -26 -49 -2 -75 14 -65 39 4 10 22 14 59 13 50 -1 53 -3 53 -26z m90 0 c0 -18 -6 -26 -23 -28 -13 -2 -25 3 -28 12 -10 26 4 48 28 44 17 -2 23 -10 23 -28z m73 7 c5 -27 -17 -50 -34 -36 -15 12 -19 41 -7 53 12 12 38 1 41 -17z m227 -7 c0 -25 0 -25 -104 -25 -75 -1 -105 3 -108 12 -13 32 4 38 108 38 104 -1 104 -1 104 -25z m68 18 c6 -20 -4 -49 -17 -45 -18 6 -20 57 -2 57 8 0 16 -6 19 -12z m82 -18 c0 -20 -6 -26 -27 -28 -24 -3 -28 0 -28 21 0 30 9 39 35 35 14 -2 20 -10 20 -28z m79 24 c23 -9 20 -41 -4 -49 -25 -8 -40 1 -40 24 0 29 14 37 44 25z m371 -24 l0 -25 -164 0 c-123 0 -165 3 -168 12 -13 35 2 38 168 38 l164 0 0 -25z m153 -1 c3 -26 2 -26 -55 -27 -60 0 -74 8 -66 39 4 15 14 18 62 16 52 -2 56 -4 59 -28z m240 -1 c3 -24 0 -28 -23 -28 -27 0 -41 20 -31 46 10 27 51 13 54 -18z m147 2 c0 -24 -3 -25 -57 -27 -57 -1 -58 -1 -58 26 0 27 1 27 58 27 54 -1 57 -2 57 -26z m155 0 c0 -26 -2 -27 -61 -27 -43 -1 -62 3 -66 13 -12 31 4 41 66 41 59 0 61 -1 61 -27z m148 -4 c-2 -22 -7 -30 -18 -26 -8 2 -33 4 -54 5 -22 0 -41 6 -44 13 -9 28 7 37 62 38 l57 2 -3 -32z m86 11 c8 -14 8 -20 -4 -27 -31 -20 -50 -12 -50 21 0 25 3 30 21 27 12 -2 27 -11 33 -21z m156 8 c6 -7 7 -20 4 -30 -6 -13 -15 -16 -42 -11 -19 3 -43 1 -53 -5 -14 -7 -21 -5 -29 10 -18 35 -3 48 55 48 31 0 59 -5 65 -12z m-5970 -126 c0 -19 -5 -29 -15 -29 -15 0 -22 50 -9 63 12 12 24 -4 24 -34z m203 23 c28 3 32 0 35 -24 2 -16 0 -28 -5 -29 -4 0 -30 -1 -58 -2 -45 -2 -50 1 -53 21 -6 39 5 55 28 42 12 -6 35 -10 53 -8z m337 -23 c0 -20 -4 -29 -12 -27 -15 5 -22 33 -14 54 9 24 26 6 26 -27z m191 25 c38 7 59 -7 52 -35 -5 -18 -12 -20 -44 -16 -20 3 -42 0 -47 -5 -16 -16 -32 0 -32 31 0 34 9 44 27 30 7 -7 27 -9 44 -5z m285 -16 c7 -25 -18 -53 -40 -45 -9 4 -16 17 -16 30 0 46 42 57 56 15z m62 -12 c-2 -15 -7 -28 -13 -29 -12 -2 -19 38 -10 60 9 25 27 1 23 -31z m190 27 c35 7 55 -5 50 -29 -3 -14 -12 -19 -40 -19 -20 0 -40 -3 -44 -7 -18 -19 -34 -7 -34 25 0 40 8 51 27 36 7 -6 26 -9 41 -6z m129 -40 c-29 -30 -47 -23 -47 16 0 38 6 41 42 24 l30 -15 -25 -25z m148 43 c17 -12 18 -17 7 -41 -22 -48 -67 -10 -48 41 7 18 17 18 41 0z m75 -27 c0 -19 -5 -29 -15 -29 -15 0 -22 50 -9 63 12 12 24 -4 24 -34z m156 30 c3 -6 17 -8 29 -5 34 9 55 -3 55 -29 0 -28 -34 -43 -56 -24 -11 9 -18 9 -26 1 -22 -22 -38 -13 -38 21 0 44 19 63 36 36z m382 -33 c-2 -15 -7 -28 -13 -29 -12 -2 -19 38 -10 60 9 25 27 1 23 -31z m121 26 c19 -36 -13 -85 -34 -52 -3 6 -15 10 -26 10 -12 0 -19 7 -19 20 0 15 7 20 25 20 14 0 25 5 25 10 0 17 19 11 29 -8z m245 -36 c-9 -31 -11 -31 -48 -14 -25 13 -36 14 -45 5 -9 -9 -14 -8 -21 3 -20 32 -2 62 25 40 11 -9 20 -8 42 3 25 12 30 12 41 -2 6 -8 9 -24 6 -35z m144 13 c-1 -13 -7 -23 -13 -22 -13 3 -18 30 -11 50 10 24 29 1 24 -28z m162 1 c0 -3 -6 -15 -14 -26 -15 -19 -15 -19 -30 1 -14 19 -15 20 -29 1 -11 -15 -17 -17 -35 -7 -26 14 -29 49 -6 58 9 3 26 1 37 -6 16 -11 22 -10 36 3 15 15 17 15 28 -1 7 -9 13 -20 13 -23z m230 20 c23 -44 -27 -80 -54 -38 -8 13 -6 22 8 37 24 26 32 26 46 1z m153 -30 c-8 -31 -33 -24 -33 8 0 16 3 32 7 36 12 11 31 -23 26 -44z m147 3 c0 -29 -20 -40 -35 -20 -10 15 -13 15 -27 1 -25 -25 -60 -9 -56 24 3 25 6 27 45 24 23 -1 45 3 49 9 9 15 24 -8 24 -38z m260 33 c32 -1 35 -4 35 -31 0 -22 -4 -29 -15 -26 -21 6 -41 4 -67 -4 -27 -9 -38 12 -29 51 5 20 11 24 24 18 9 -4 33 -8 52 -8z m195 4 c8 -13 52 -13 61 1 9 15 24 -9 24 -38 0 -28 -17 -38 -36 -22 -11 9 -20 9 -40 0 -38 -17 -44 -14 -44 22 0 43 19 63 35 37z m238 -41 c-8 -29 -24 -34 -40 -13 -9 13 -16 15 -21 7 -7 -11 -26 -16 -49 -14 -18 1 -16 50 1 57 8 3 24 0 36 -6 18 -10 25 -9 39 4 14 15 17 15 27 1 7 -9 10 -25 7 -36z m147 11 c0 -34 -15 -47 -35 -30 -10 8 -19 8 -34 1 -29 -16 -41 -14 -50 12 -14 34 9 52 48 39 23 -8 32 -7 42 4 16 19 29 8 29 -26z m155 30 c4 -6 23 -9 43 -8 35 3 37 1 37 -27 0 -22 -4 -29 -15 -26 -21 6 -51 5 -77 -4 -21 -7 -23 -4 -23 27 0 44 19 64 35 38z m267 -13 c7 5 36 9 63 8 47 -1 50 -3 53 -29 3 -26 1 -28 -24 -23 -15 3 -39 1 -53 -5 -21 -7 -28 -5 -41 12 l-16 22 -15 -23 c-18 -26 -39 -18 -39 15 0 35 20 49 42 29 12 -11 22 -13 30 -6z m515 -14 c6 -16 -27 -44 -46 -41 -20 4 -27 44 -10 64 10 12 15 13 32 1 12 -8 22 -18 24 -24z m53 -3 c0 -39 -17 -47 -31 -16 -9 20 -9 29 1 41 17 20 30 10 30 -25z m155 -8 c-3 -8 -5 -18 -5 -23 0 -5 -6 -9 -14 -9 -19 0 -27 39 -14 63 10 20 11 20 25 2 7 -11 11 -26 8 -33z m385 8 c0 -37 -16 -47 -30 -19 l-12 21 -23 -22 c-31 -29 -55 -20 -55 20 0 25 4 30 23 30 13 0 28 -5 35 -12 10 -9 16 -9 29 4 21 22 33 14 33 -22z m154 -13 c-3 -15 -12 -27 -19 -27 -20 0 -28 36 -15 61 11 19 14 20 27 7 9 -10 12 -24 7 -41z m-6185 29 c18 -22 -4 -58 -32 -54 -37 5 -36 68 1 68 11 0 25 -6 31 -14z m75 8 c22 -9 20 -41 -4 -54 -26 -14 -40 -5 -40 24 0 34 12 42 44 30z m71 -24 c0 -13 -5 -25 -11 -27 -13 -4 -23 25 -16 45 7 21 27 8 27 -18z m90 -5 c0 -25 -4 -30 -25 -30 -16 0 -26 6 -28 18 -6 30 6 49 30 45 18 -2 23 -9 23 -33z m379 29 c20 -8 20 -28 0 -48 -21 -22 -33 -20 -43 7 -13 34 8 54 43 41z m74 -27 c2 -19 -1 -27 -12 -27 -11 0 -16 10 -16 31 0 38 24 35 28 -4z m90 7 c4 -25 -22 -49 -43 -40 -15 5 -21 47 -8 60 14 14 48 1 51 -20z m145 14 c6 -20 -4 -49 -16 -45 -6 2 -15 11 -21 20 -8 13 -7 20 4 27 20 13 28 12 33 -2z m232 -2 c19 -14 19 -15 1 -35 -24 -26 -32 -26 -46 0 -9 15 -8 24 1 35 14 18 20 18 44 0z m70 -16 c0 -13 -5 -25 -11 -27 -13 -4 -23 25 -16 45 7 21 27 8 27 -18z m243 6 c2 -10 -1 -23 -8 -30 -14 -14 -41 19 -33 40 8 20 37 13 41 -10z m521 11 c8 -10 7 -18 -3 -32 -15 -21 -36 -13 -36 14 0 31 20 40 39 18z m236 2 c9 -13 -3 -59 -15 -59 -14 0 -31 37 -24 54 7 18 30 21 39 5z m163 -1 c13 -17 -3 -58 -22 -58 -19 0 -38 34 -30 54 7 19 38 21 52 4z m280 -17 c5 -32 -11 -46 -37 -32 -23 13 -28 46 -8 54 24 10 42 2 45 -22z m219 13 c8 -21 -13 -42 -28 -27 -13 13 -5 43 11 43 6 0 13 -7 17 -16z m319 -8 c11 -47 -23 -63 -50 -24 -11 16 -13 25 -4 35 18 22 47 15 54 -11z m68 9 c7 -18 -2 -45 -15 -45 -5 0 -12 7 -15 15 -7 18 2 45 15 45 5 0 11 -7 15 -15z m151 -15 c0 -13 -6 -25 -12 -27 -16 -6 -27 21 -19 43 9 23 31 11 31 -16z m322 14 c8 -20 -8 -48 -30 -52 -18 -4 -34 39 -22 57 10 17 45 13 52 -5z m56 -26 c-10 -21 -12 -21 -18 -5 -10 25 2 54 17 39 8 -8 8 -18 1 -34z m245 9 c2 -19 -1 -27 -12 -27 -22 0 -38 34 -23 49 17 17 32 8 35 -22z m531 20 c15 -19 -10 -53 -33 -44 -16 6 -22 38 -9 50 10 11 30 8 42 -6z m245 -10 c9 -15 7 -21 -9 -33 -23 -17 -39 -14 -43 10 -9 45 29 61 52 23z m374 -3 c5 -35 -17 -45 -73 -30 -67 17 -74 43 -13 49 70 6 83 4 86 -19z m67 13 c20 -15 15 -31 -15 -47 -25 -14 -48 23 -29 46 14 17 20 18 44 1z m73 -20 c2 -19 -1 -27 -13 -27 -19 0 -30 24 -21 46 9 23 31 11 34 -19z m240 4 c5 -32 -11 -46 -37 -32 -23 13 -28 46 -8 54 24 10 42 2 45 -22z m156 7 c15 -24 -13 -53 -43 -43 -21 6 -29 43 -14 59 12 12 45 2 57 -16z m70 11 c20 -9 29 -9 40 0 19 16 36 6 36 -19 0 -27 -21 -36 -36 -15 -12 17 -15 17 -31 3 -33 -28 -42 -29 -53 -8 -9 16 -8 25 1 36 14 17 12 17 43 3z m305 -3 c17 -20 3 -46 -25 -46 -18 0 -24 5 -24 23 0 38 26 50 49 23z m166 -6 c14 -44 -48 -70 -64 -27 -11 28 3 47 35 47 14 0 25 -8 29 -20z m63 8 c14 -14 -2 -48 -22 -48 -17 0 -27 25 -20 45 7 18 26 19 42 3z m-5956 -23 c-5 -29 -10 -31 -28 -13 -19 19 -10 41 14 36 11 -2 16 -11 14 -23z m1384 14 c3 -6 1 -16 -5 -22 -9 -9 -14 -8 -21 3 -9 15 -4 30 10 30 5 0 12 -5 16 -11z m544 -7 c0 -28 -11 -34 -31 -16 -21 19 -16 34 12 34 12 0 19 -7 19 -18z m-2316 -88 c19 -19 20 -25 3 -48 -20 -28 -57 -13 -57 23 0 44 25 55 54 25z m80 3 c26 -19 17 -52 -14 -52 -25 0 -37 22 -26 51 7 17 17 18 40 1z m74 -28 c-1 -13 -7 -23 -13 -22 -13 3 -18 30 -11 50 10 24 29 1 24 -28z m152 17 c0 -33 -10 -57 -21 -50 -16 9 -11 74 6 74 9 0 15 -9 15 -24z m88 -14 c4 -38 -21 -54 -46 -29 -13 13 -13 21 -4 42 17 37 46 29 50 -13z m62 8 c0 -16 -5 -30 -10 -30 -14 0 -24 26 -16 45 10 26 26 16 26 -15z m89 8 c12 -30 -9 -53 -38 -43 -26 8 -29 51 -3 58 30 8 32 7 41 -15z m89 -20 c1 -8 -9 -20 -22 -26 -22 -10 -27 -9 -35 6 -5 10 -5 27 0 41 9 22 11 22 32 8 12 -8 23 -21 25 -29z m60 13 c6 -37 -15 -49 -28 -17 -5 15 -7 32 -4 37 10 16 29 4 32 -20z m150 -3 c-2 -18 -7 -33 -13 -33 -5 0 -11 15 -13 33 -3 24 1 32 13 32 12 0 16 -8 13 -32z m90 -6 c2 -22 -2 -34 -12 -38 -34 -13 -61 37 -34 64 21 21 43 9 46 -26z m62 3 c0 -13 -4 -26 -9 -29 -11 -7 -24 41 -16 55 10 15 25 0 25 -26z m163 21 c9 -7 17 -17 17 -22 0 -11 -37 -44 -49 -44 -13 0 -19 33 -10 58 10 25 17 27 42 8z m72 -21 c0 -16 -5 -30 -11 -32 -13 -4 -25 33 -17 53 9 24 28 10 28 -21z m79 22 c13 -10 16 -20 12 -35 -10 -30 -23 -28 -40 7 -21 39 -7 53 28 28z m71 -25 c0 -46 -19 -44 -23 2 -3 28 0 37 10 34 7 -3 13 -19 13 -36z m93 0 c2 -22 -2 -34 -12 -38 -34 -13 -61 37 -34 64 21 21 43 9 46 -26z m64 4 c4 -27 -18 -31 -25 -5 -7 26 1 45 13 32 5 -4 10 -17 12 -27z m160 17 c23 -20 23 -32 1 -49 -31 -24 -43 -17 -43 26 0 43 12 50 42 23z m150 -9 c10 -20 9 -27 -2 -34 -18 -11 -40 6 -40 30 0 37 26 40 42 4z m73 -7 c0 -39 -19 -38 -23 2 -3 24 0 32 10 29 7 -3 13 -17 13 -31z m93 2 c2 -15 -4 -31 -13 -39 -24 -20 -50 9 -41 45 9 36 50 32 54 -6z m67 11 c7 -21 0 -40 -15 -40 -12 0 -23 37 -15 50 10 16 23 12 30 -10z m85 -20 c0 -25 -48 -39 -61 -19 -12 19 -11 25 7 43 20 20 54 5 54 -24z m65 -20 c-26 -28 -35 -25 -35 13 0 44 10 52 34 28 19 -20 19 -21 1 -41z m153 16 c-2 -12 -10 -21 -18 -21 -16 0 -25 28 -16 52 9 23 38 -4 34 -31z m77 4 c0 -18 -6 -35 -12 -37 -9 -3 -13 8 -13 37 0 29 4 40 13 38 6 -3 12 -20 12 -38z m123 6 c5 -37 -7 -48 -45 -40 -34 7 -47 26 -37 56 4 15 13 18 42 16 32 -3 37 -7 40 -32z m162 14 c12 -23 6 -40 -15 -40 -16 0 -29 35 -20 50 10 16 23 12 35 -10z m80 -21 c0 -19 -5 -29 -15 -29 -15 0 -22 50 -9 63 12 12 24 -4 24 -34z m67 25 c3 -8 -1 -22 -10 -31 -13 -14 -16 -13 -22 6 -11 35 19 59 32 25z m89 1 c9 -23 -4 -65 -21 -65 -17 0 -28 33 -20 60 7 23 33 27 41 5z m144 -5 c8 -14 7 -26 -1 -42 -11 -21 -12 -21 -26 -3 -7 11 -11 26 -8 33 3 8 5 18 5 23 0 16 19 9 30 -11z m85 9 c4 -5 4 -21 1 -35 -5 -19 -12 -25 -29 -22 -12 2 -23 11 -25 21 -7 33 37 63 53 36z m69 -5 c9 -23 -3 -56 -17 -51 -22 7 -21 67 2 67 5 0 12 -7 15 -16z m81 -22 c0 -18 -4 -33 -9 -34 -11 -3 -28 51 -20 64 12 19 29 0 29 -30z m70 27 c9 -14 -3 -59 -15 -59 -5 0 -12 11 -16 24 -6 26 1 46 16 46 5 0 12 -5 15 -11z m91 -4 c8 -21 -4 -65 -18 -65 -22 0 -36 33 -25 57 12 26 35 30 43 8z m142 -14 c2 -12 1 -29 -2 -38 -5 -12 -9 -13 -21 -3 -8 7 -24 10 -34 7 -15 -4 -22 2 -30 24 -11 32 3 40 28 17 11 -11 15 -10 24 5 15 22 31 17 35 -12z m82 14 c6 -8 10 -22 8 -32 -5 -25 -51 -25 -56 0 -8 42 23 63 48 32z m66 -30 c-4 -14 -11 -23 -16 -20 -11 7 -13 48 -3 59 13 13 26 -13 19 -39z m78 34 c20 -9 29 -9 40 0 21 17 36 5 36 -28 0 -34 -9 -44 -27 -30 -9 9 -21 8 -42 -1 -17 -6 -35 -9 -40 -5 -17 10 -13 75 5 75 2 0 14 -5 28 -11z m164 -23 c5 -40 -12 -54 -38 -31 -23 21 -25 36 -8 53 20 20 43 9 46 -22z m76 23 c20 -9 29 -9 40 0 21 18 36 5 36 -29 0 -33 -16 -48 -33 -31 -6 6 -26 11 -44 11 -35 0 -50 17 -39 45 7 18 8 18 40 4z m147 1 c23 -13 25 -43 4 -60 -22 -19 -45 -5 -45 28 0 42 9 49 41 32z m77 -34 c-2 -15 -7 -28 -13 -29 -12 -2 -19 38 -10 60 9 25 27 1 23 -31z m72 32 c16 -10 24 -10 40 0 28 17 40 7 40 -34 0 -24 -5 -34 -15 -34 -8 0 -15 5 -15 10 0 14 -43 13 -57 -1 -17 -17 -33 -2 -33 30 0 41 9 48 40 29z m162 -28 c-5 -43 -6 -44 -31 -30 -23 12 -29 55 -8 63 29 13 42 2 39 -33z m68 21 c11 -21 4 -51 -11 -51 -12 0 -28 41 -22 58 7 18 21 15 33 -7z m88 -15 c5 -40 -12 -54 -38 -31 -24 22 -25 29 -4 50 22 22 38 14 42 -19z m77 20 c17 -12 18 -17 7 -41 -22 -48 -67 -10 -48 41 7 18 17 18 41 0z m74 -8 c10 -25 -4 -62 -20 -53 -16 11 -10 75 8 75 2 0 7 -10 12 -22z m96 9 c11 0 27 1 35 4 10 3 16 -5 18 -25 4 -30 -17 -62 -25 -38 -6 14 -49 16 -58 2 -18 -30 -47 12 -34 49 7 17 14 21 27 15 9 -4 26 -7 37 -7z m275 1 c16 -10 24 -10 41 0 38 24 69 -29 34 -58 -13 -11 -18 -10 -29 5 -12 17 -15 17 -44 2 -31 -15 -32 -15 -38 9 -6 24 0 54 11 54 3 0 14 -6 25 -12z m151 2 c20 -11 26 -45 9 -55 -24 -15 -64 38 -43 58 8 9 11 9 34 -3z m79 -10 c13 -24 4 -60 -15 -60 -15 0 -28 41 -19 64 8 22 21 20 34 -4z m74 14 c32 -12 14 -79 -20 -72 -23 4 -32 57 -12 69 16 10 13 10 32 3z m71 -32 c0 -46 -19 -44 -23 2 -3 28 0 37 10 34 7 -3 13 -19 13 -36z m163 26 c9 -9 18 -9 38 1 22 10 30 9 44 -4 15 -14 19 -14 30 0 16 19 50 3 50 -24 0 -24 -26 -34 -52 -20 -17 9 -24 8 -34 -5 -8 -11 -14 -13 -19 -7 -8 14 -52 14 -60 1 -10 -17 -25 -11 -37 15 -8 19 -8 28 2 40 15 18 22 19 38 3z m232 -8 c13 -25 4 -60 -15 -60 -17 0 -30 42 -21 65 8 21 23 19 36 -5z m74 14 c31 -12 13 -74 -21 -74 -21 0 -35 37 -23 60 11 21 19 24 44 14z m71 -32 c0 -46 -19 -44 -23 2 -3 28 0 37 10 34 7 -3 13 -19 13 -36z m-5937 4 c6 -30 -17 -45 -34 -22 -8 11 -14 26 -14 34 0 21 44 10 48 -12z m537 3 c10 -31 -12 -49 -31 -25 -8 11 -14 26 -14 33 0 21 38 15 45 -8z m309 5 c13 -34 -35 -59 -62 -32 -17 17 4 48 32 48 13 0 27 -7 30 -16z m531 -14 c0 -20 -6 -26 -28 -28 -32 -4 -46 20 -26 44 19 24 54 14 54 -16z m148 17 c5 -14 -9 -45 -16 -37 -3 3 -8 15 -11 28 -5 16 -3 22 7 22 8 0 17 -6 20 -13z m544 -3 c3 -8 1 -20 -6 -27 -8 -8 -15 -6 -26 9 -20 26 -19 34 5 34 11 0 23 -7 27 -16z m361 -9 c4 -33 -12 -49 -37 -36 -20 11 -28 41 -14 55 14 14 48 1 51 -19z m395 6 c2 -10 0 -26 -5 -36 -8 -14 -12 -15 -19 -4 -14 22 -11 59 5 59 7 0 16 -8 19 -19z m2131 3 c9 -22 -11 -44 -41 -44 -15 0 -26 8 -32 22 l-8 22 -12 -22 c-15 -27 -31 -20 -31 14 0 23 3 24 59 24 45 0 60 -4 65 -16z m540 0 c8 -21 -11 -44 -36 -44 -21 0 -33 22 -24 45 7 20 52 19 60 -1z m-5739 -104 c12 -20 -6 -50 -31 -50 -20 0 -24 5 -24 30 0 25 4 30 24 30 14 0 28 -5 31 -10z m65 -26 c0 -20 4 -25 22 -22 14 2 24 12 28 28 3 14 12 25 20 25 9 0 15 -10 15 -25 0 -37 39 -35 43 3 2 19 9 27 23 27 26 0 35 -27 16 -48 -15 -16 -21 -81 -17 -157 6 -84 -10 -239 -26 -255 -14 -13 -17 -13 -30 4 -8 11 -14 28 -14 37 0 28 -19 33 -29 7 -11 -30 -12 -219 -1 -238 7 -11 15 -12 49 -1 23 6 46 9 51 6 5 -3 13 2 18 11 11 19 94 23 115 5 13 -10 47 -6 47 6 0 3 -11 18 -25 35 -14 16 -25 39 -25 51 0 39 -12 67 -28 67 -9 0 -35 -9 -59 -21 -24 -12 -51 -18 -60 -15 -19 8 -8 22 21 28 18 3 43 34 65 83 5 11 26 38 46 60 44 47 57 75 42 93 -5 7 -6 16 -2 20 4 4 10 1 12 -5 9 -25 40 -13 59 22 14 27 16 37 6 47 -7 7 -12 21 -12 33 0 19 1 19 19 -4 l18 -23 36 37 c21 21 37 41 37 45 0 4 9 10 20 13 13 3 19 12 18 25 -2 12 2 21 7 21 6 0 10 -8 10 -18 0 -27 10 -34 38 -27 17 4 23 12 23 28 -1 14 5 23 14 23 9 0 15 -9 15 -24 0 -37 24 -37 36 -1 9 23 16 30 33 28 18 -3 20 -9 18 -38 -5 -46 -25 -83 -54 -98 -35 -20 -63 -61 -49 -75 6 -6 11 -22 10 -37 0 -25 0 -25 -9 -2 -14 33 -31 27 -70 -28 -19 -27 -38 -50 -42 -50 -4 0 -14 -12 -22 -27 -8 -16 -44 -59 -80 -98 -36 -38 -66 -72 -66 -75 0 -3 16 -16 35 -29 19 -13 35 -30 35 -37 0 -7 19 -35 43 -62 23 -26 60 -70 82 -96 22 -26 55 -63 73 -83 17 -20 32 -42 32 -51 0 -11 7 -13 28 -9 24 5 27 3 29 -25 1 -17 8 -37 14 -44 16 -20 5 -28 -39 -29 -32 0 -37 -3 -37 -24 0 -35 -23 -38 -27 -4 -3 24 -8 28 -33 28 -25 0 -31 -5 -36 -30 l-7 -30 -1 28 c-1 19 -8 30 -26 37 -13 5 -31 22 -39 38 -15 30 -51 48 -62 31 -13 -22 -26 -7 -20 25 9 47 -11 89 -40 83 -19 -3 -23 2 -29 29 -3 18 -19 46 -34 62 -16 15 -31 37 -33 48 -5 23 -37 21 -55 -4 -7 -9 -21 -27 -30 -38 -10 -12 -29 -36 -43 -53 -14 -17 -44 -52 -67 -78 -24 -25 -43 -55 -43 -65 0 -13 -6 -18 -17 -16 -15 3 -18 13 -17 53 0 28 2 233 3 456 1 224 5 409 8 412 11 12 23 -4 23 -29z m238 11 c-2 -14 -7 -26 -13 -26 -5 0 -11 12 -13 26 -2 18 1 25 13 25 12 0 15 -7 13 -25z m89 9 c3 -8 1 -20 -6 -27 -14 -14 -47 15 -37 32 10 16 36 13 43 -5z m70 1 c5 -16 -14 -38 -26 -31 -18 12 -13 48 6 44 9 -2 18 -7 20 -13z m71 -7 c-2 -13 -11 -24 -21 -26 -22 -4 -35 27 -16 39 25 16 41 10 37 -13z m310 -3 c-2 -14 -7 -26 -13 -26 -5 0 -11 12 -13 26 -2 18 1 25 13 25 12 0 15 -7 13 -25z m89 9 c3 -8 1 -20 -6 -27 -14 -14 -47 15 -37 32 10 16 36 13 43 -5z m68 -9 c0 -28 -29 -25 -33 3 -3 19 0 23 15 20 10 -2 18 -12 18 -23z m80 -5 c0 -20 -6 -26 -26 -28 -28 -3 -43 16 -32 44 3 9 15 14 32 12 20 -2 26 -8 26 -28z m60 7 c0 -26 -20 -25 -23 2 -3 16 1 22 10 19 7 -3 13 -12 13 -21z m95 -2 c0 -13 -7 -28 -17 -33 -15 -9 -15 -12 0 -51 10 -23 17 -55 17 -71 0 -24 6 -33 26 -40 19 -8 24 -15 19 -30 -7 -21 5 -70 31 -127 8 -17 14 -40 14 -51 0 -14 8 -22 23 -24 18 -2 21 -8 19 -32 -3 -28 4 -55 34 -123 8 -17 14 -38 14 -47 0 -10 9 -16 25 -16 29 0 29 -1 14 -34 -9 -20 -8 -32 5 -60 9 -18 16 -39 16 -45 0 -13 30 -63 44 -72 16 -12 24 -98 11 -116 -8 -11 -14 -13 -19 -5 -4 7 -16 12 -27 12 -14 0 -19 -7 -19 -25 0 -16 -6 -25 -16 -25 -11 0 -13 6 -9 19 7 23 -20 35 -59 25 -23 -5 -26 -3 -26 18 0 13 -7 33 -15 44 -8 10 -15 30 -15 42 0 13 -6 36 -14 50 -24 45 -46 111 -46 138 0 13 -7 27 -15 30 -9 4 -15 19 -15 38 0 18 -4 36 -9 42 -6 5 -11 32 -13 59 -3 48 -4 50 -35 53 -29 3 -32 0 -37 -30 -3 -18 -8 -49 -11 -68 -3 -19 -9 -51 -12 -70 -3 -19 -11 -38 -18 -43 -7 -4 -16 -26 -20 -50 -7 -41 -24 -92 -51 -154 -8 -17 -14 -33 -14 -36 0 -2 -7 -21 -16 -42 -11 -28 -18 -35 -27 -26 -21 21 -47 13 -47 -14 0 -16 -6 -25 -15 -25 -18 0 -19 12 -4 27 15 15 -23 26 -61 18 -27 -6 -30 -4 -30 18 0 32 19 86 42 119 10 14 18 37 18 50 0 13 7 33 15 44 8 10 15 28 15 39 0 11 13 47 30 79 16 33 32 72 35 88 4 15 11 30 16 33 5 4 9 20 9 36 0 16 6 32 14 35 8 3 17 22 21 42 4 20 10 42 15 47 4 6 16 37 26 70 10 33 24 65 30 70 6 6 14 24 18 40 17 78 32 115 48 121 10 3 18 15 18 28 0 27 8 36 32 36 12 0 18 -7 18 -25z m88 1 c5 -26 -26 -50 -45 -35 -14 12 -17 41 -6 53 13 13 48 1 51 -18z m62 -6 c0 -20 -5 -30 -15 -30 -10 0 -15 10 -15 30 0 20 5 30 15 30 10 0 15 -10 15 -30z m88 3 c-4 -34 -23 -41 -38 -13 -13 25 -6 40 21 40 16 0 20 -6 17 -27z m69 12 c5 -16 -14 -38 -26 -31 -18 12 -13 48 6 44 9 -2 18 -7 20 -13z m78 5 c11 -17 -5 -50 -24 -50 -24 0 -45 25 -37 45 6 17 51 21 61 5z m63 -15 c-2 -14 -7 -26 -13 -26 -5 0 -11 12 -13 26 -2 18 1 25 13 25 12 0 15 -7 13 -25z m84 -7 c-4 -30 8 -41 33 -32 11 5 15 15 12 31 -5 27 4 36 27 27 8 -3 14 -16 13 -27 -2 -19 4 -22 38 -24 54 -3 71 -7 86 -20 8 -6 24 -14 37 -18 32 -9 92 -64 92 -83 0 -8 6 -23 14 -31 17 -21 27 -106 13 -120 -6 -6 -21 -11 -34 -11 -16 0 -23 -6 -23 -20 0 -27 -18 -25 -22 3 -2 18 -9 22 -37 22 -29 0 -36 4 -44 30 -21 64 -62 82 -146 64 -42 -9 -50 -15 -64 -48 -21 -47 -21 -52 -1 -95 19 -39 63 -55 172 -63 46 -3 69 -10 86 -26 12 -12 42 -38 66 -58 41 -35 44 -41 51 -104 13 -109 -14 -239 -57 -276 -9 -8 -48 -30 -88 -49 -53 -26 -72 -41 -74 -58 -2 -12 -8 -22 -13 -22 -6 0 -8 8 -4 19 4 13 0 20 -14 24 -22 5 -29 58 -21 142 5 48 6 49 45 57 69 14 94 73 58 136 -23 39 -76 62 -146 62 -33 0 -72 7 -93 17 -34 17 -36 17 -45 0 -6 -10 -15 -15 -20 -11 -6 4 -6 11 2 20 9 11 6 21 -15 49 -15 19 -36 40 -47 45 -14 8 -18 17 -14 30 3 11 -1 35 -10 53 -13 29 -14 45 -5 103 7 44 18 75 31 87 10 10 19 22 19 26 0 19 57 69 93 81 40 15 47 35 20 55 -21 15 -10 48 14 43 13 -2 17 -11 15 -30z m151 6 c-4 -10 -9 -12 -15 -6 -12 12 -1 35 12 27 5 -3 6 -13 3 -21z m162 16 c4 -6 1 -18 -6 -26 -10 -12 -14 -12 -20 -2 -5 7 -9 19 -9 26 0 15 26 16 35 2z m77 4 c14 -13 -6 -44 -27 -44 -26 0 -39 22 -22 39 12 12 40 15 49 5z m149 -6 c1 -7 1 -18 0 -24 -2 -16 29 -26 33 -11 12 40 17 47 31 47 21 0 30 -27 16 -44 -16 -19 -23 -337 -9 -394 13 -54 -1 -75 -32 -47 -15 14 -23 15 -34 6 -10 -9 -20 -9 -40 0 -22 10 -29 9 -46 -6 -20 -18 -20 -17 -32 16 -7 19 -11 39 -9 44 12 41 17 167 9 249 -6 67 -5 103 2 110 5 5 11 21 11 36 1 20 2 21 6 5 3 -11 9 -24 13 -28 11 -12 52 2 44 14 -9 15 4 39 21 39 8 0 16 -6 16 -12z m159 -19 c0 -38 -24 -35 -28 4 -2 19 1 27 12 27 11 0 16 -10 16 -31z m125 9 c4 -11 3 -24 -3 -30 -13 -13 -79 1 -86 19 -9 23 -1 29 43 30 32 2 41 -2 46 -19z m153 -6 c5 -32 53 -31 49 1 -1 14 3 22 13 22 9 0 15 -9 15 -25 0 -21 5 -25 28 -25 l28 0 2 -467 c1 -358 5 -470 15 -480 18 -18 15 -38 -8 -38 -15 0 -19 6 -17 22 2 22 -2 23 -63 23 -63 0 -65 -1 -65 -25 0 -16 -6 -25 -15 -25 -12 0 -15 20 -15 119 0 121 -7 143 -38 118 -10 -8 -204 -8 -277 0 l-25 3 3 -118 c2 -71 -1 -117 -7 -117 -5 0 -11 10 -13 23 -2 14 -11 23 -25 25 -20 3 -23 -1 -23 -28 0 -37 -21 -37 -30 1 -8 34 -51 34 -61 -1 -5 -16 -7 -19 -8 -7 -1 10 -8 28 -16 40 -11 17 -12 31 -4 67 6 25 11 99 12 165 l2 120 255 0 255 0 -3 307 c-2 169 0 312 3 318 10 17 30 6 33 -18z m377 -5 c0 -20 5 -22 65 -22 61 0 65 1 63 23 -2 14 3 22 13 22 11 0 15 -6 11 -19 -3 -11 1 -22 8 -25 23 -8 54 5 57 25 2 11 8 20 13 19 6 0 10 -48 10 -122 0 -105 -2 -122 -15 -119 -8 3 -31 6 -51 7 -20 0 -40 3 -45 6 -5 3 -38 4 -74 4 l-65 -1 0 -70 c0 -38 -4 -78 -9 -88 -18 -38 5 -42 209 -38 l195 3 0 -30 c0 -17 -4 -34 -10 -37 -14 -8 -13 -41 2 -65 25 -39 2 -44 -201 -41 -124 2 -191 -1 -195 -8 -4 -6 -2 -28 5 -49 7 -26 8 -45 2 -58 -14 -26 -4 -94 15 -101 8 -4 23 -1 33 6 12 7 35 9 59 5 30 -5 40 -3 40 7 0 10 3 10 12 1 7 -7 25 -12 40 -12 22 0 29 6 35 28 l6 27 8 -28 c11 -41 13 -174 3 -222 -7 -36 -8 -37 -14 -15 -6 25 -8 25 -118 28 l-112 3 -1 -28 -2 -28 -4 27 c-4 27 -5 27 -71 25 -62 -2 -67 -4 -67 -24 0 -13 -4 -23 -10 -23 -5 0 -10 9 -10 19 0 10 -6 25 -14 34 -9 12 -11 27 -5 54 12 58 13 666 1 767 -12 106 -5 117 70 108 46 -5 46 -5 39 22 -5 19 -3 26 9 26 9 0 14 -8 12 -22 -1 -17 3 -23 18 -23 13 0 20 7 21 20 2 33 4 39 12 31 4 -4 7 -18 7 -29z m312 17 c7 -18 -17 -38 -31 -24 -11 11 -1 40 14 40 6 0 13 -7 17 -16z m83 -8 c0 -28 17 -36 75 -31 35 2 40 6 43 29 4 34 26 29 30 -7 2 -15 7 -27 12 -27 15 0 50 -70 50 -100 0 -16 5 -32 10 -35 6 -3 10 -16 10 -28 0 -12 13 -47 29 -77 15 -30 31 -77 35 -104 3 -27 10 -54 15 -60 5 -6 11 -29 13 -51 6 -72 68 -49 68 25 0 21 7 45 15 53 8 8 17 35 21 59 4 23 10 50 14 58 5 9 2 30 -6 50 -20 46 -11 69 17 44 13 -12 23 -15 27 -7 4 6 41 11 85 11 44 1 87 4 97 7 23 7 34 -9 26 -41 -4 -15 -14 -24 -26 -24 -21 0 -45 -34 -35 -50 4 -6 19 -9 33 -8 23 3 27 -1 27 -21 0 -33 -19 -37 -45 -11 -27 27 -38 18 -47 -35 -5 -30 -2 -41 12 -51 21 -16 15 -26 -18 -31 -40 -6 -45 -11 -52 -55 -4 -24 -14 -52 -21 -63 -19 -27 -17 -48 6 -68 12 -10 18 -23 14 -29 -5 -8 -11 -6 -19 5 -7 10 -16 17 -21 17 -17 0 -44 -61 -44 -99 0 -24 -7 -42 -20 -54 -11 -9 -20 -21 -20 -26 0 -16 57 -39 71 -30 8 5 24 9 37 9 19 0 23 -5 20 -22 -3 -20 -9 -23 -55 -24 -43 -1 -54 2 -58 17 -18 55 -52 -19 -46 -99 2 -27 -1 -32 -19 -32 -24 0 -33 18 -34 74 -1 35 -5 41 -23 44 -25 4 -28 14 -13 42 7 13 5 26 -5 47 -8 15 -15 33 -15 39 0 5 -9 29 -20 53 -17 34 -25 41 -40 36 -16 -5 -20 -2 -20 14 0 12 5 21 10 21 12 0 13 47 1 54 -5 3 -12 18 -16 33 -3 16 -18 52 -31 82 -14 29 -28 69 -31 88 -3 19 -12 37 -19 40 -8 3 -14 16 -14 29 0 13 -4 32 -9 42 -16 32 -51 127 -51 140 0 15 -22 16 -38 0 -17 -17 -28 18 -12 37 12 14 11 32 -6 98 -5 21 -3 27 10 27 10 0 16 -9 16 -24z m306 9 c4 -8 0 -22 -7 -31 -10 -13 -14 -13 -26 -1 -16 16 -7 47 13 47 8 0 17 -7 20 -15z m81 -1 c8 -22 -10 -49 -32 -49 -10 0 -22 7 -28 16 -15 24 -1 49 28 49 15 0 28 -7 32 -16z m68 6 c10 -16 -5 -50 -21 -50 -9 0 -14 11 -14 30 0 30 21 42 35 20z m80 -20 c0 -20 -5 -25 -25 -25 -20 0 -26 6 -28 28 -3 26 -1 28 25 25 22 -2 28 -8 28 -28z m153 0 c3 -24 1 -25 -58 -27 -60 -1 -60 -1 -60 28 0 28 0 28 58 26 53 -2 57 -4 60 -27z m76 24 c21 -8 20 -40 -1 -48 -21 -8 -48 17 -40 38 7 17 16 19 41 10z m83 -5 c8 -8 13 -8 17 0 9 14 53 14 61 1 9 -15 -3 -47 -21 -54 -8 -3 -23 3 -33 13 -16 16 -20 17 -25 5 -7 -19 -35 -18 -42 1 -14 34 18 59 43 34z m148 -19 c0 -16 -6 -26 -17 -28 -14 -3 -18 3 -18 28 0 25 4 31 18 28 11 -2 17 -12 17 -28z m80 0 c0 -31 -33 -40 -52 -14 -16 22 1 46 31 42 15 -2 21 -10 21 -28z m153 -2 c4 -33 -20 -38 -51 -11 -18 17 -19 17 -28 0 -12 -21 -35 -22 -43 -2 -12 32 4 43 62 41 54 -1 57 -2 60 -28z m80 24 c15 -10 6 -38 -15 -46 -20 -8 -33 1 -33 23 0 30 21 40 48 23z m158 -3 c17 -28 -26 -69 -51 -49 -7 6 -24 8 -38 5 -20 -5 -28 -2 -37 15 -9 16 -9 24 -1 29 17 11 120 11 127 0z m69 -19 c0 -16 -6 -26 -17 -28 -14 -3 -18 3 -18 28 0 25 4 31 18 28 11 -2 17 -12 17 -28z m145 1 c0 -39 -6 -41 -64 -28 -83 19 -72 57 17 57 45 0 47 -1 47 -29z m150 -2 c0 -31 -16 -37 -51 -18 -15 7 -24 7 -34 -1 -19 -16 -35 -4 -35 24 0 21 4 23 60 23 60 1 60 1 60 -28z m85 1 c0 -20 -5 -25 -25 -25 -20 0 -26 6 -28 28 -3 26 -1 28 25 25 22 -2 28 -8 28 -28z m73 4 c2 -11 -4 -26 -12 -33 -12 -10 -17 -8 -26 9 -6 12 -9 28 -6 37 8 21 40 12 44 -13z m80 -6 c4 -32 -14 -37 -34 -10 -21 27 -17 44 9 40 16 -2 23 -11 25 -30z m152 3 c0 -33 -15 -42 -48 -30 -13 5 -34 6 -48 3 -21 -6 -24 -3 -24 24 0 30 0 30 60 31 60 1 60 0 60 -28z m150 3 c0 -30 -21 -40 -50 -24 -16 9 -25 9 -35 0 -19 -16 -35 -4 -35 24 0 21 4 23 60 23 57 1 60 0 60 -23z m86 11 c8 -20 -13 -45 -37 -45 -14 0 -19 7 -19 30 0 25 4 30 25 30 14 0 28 -7 31 -15z m67 3 c2 -7 0 -24 -4 -37 -8 -19 -12 -21 -24 -11 -22 18 -19 60 4 60 10 0 21 -6 24 -12z m84 -4 c8 -21 -19 -46 -40 -38 -17 6 -23 35 -10 47 12 13 44 7 50 -9z m153 -14 c0 -29 0 -29 -59 -28 -51 1 -60 4 -65 21 -8 31 -2 34 64 35 60 1 60 1 60 -28z m77 15 c5 -17 -23 -49 -35 -41 -7 4 -12 18 -12 32 0 20 4 25 22 22 12 -2 23 -8 25 -13z m-3687 -11 c0 -17 -22 -14 -28 4 -2 7 3 12 12 12 9 0 16 -7 16 -16z m1090 1 c0 -8 -6 -15 -14 -15 -7 0 -19 7 -26 15 -11 13 -8 15 14 15 16 0 26 -5 26 -15z m-4792 -29 l22 -7 0 -281 c0 -334 5 -318 -103 -318 -113 0 -107 -17 -107 315 0 273 1 282 20 291 24 10 135 10 168 0z m648 2 c7 -8 5 -671 -3 -720 l-6 -38 51 0 c81 0 82 -1 82 -96 l0 -84 -583 0 -582 1 -18 30 c-9 17 -17 45 -17 64 0 18 -7 38 -15 45 -8 7 -15 22 -15 34 0 11 -7 30 -15 40 -8 11 -15 32 -15 47 0 14 -7 32 -15 39 -8 7 -15 29 -15 50 0 24 -5 40 -15 44 -17 6 -20 53 -5 76 9 13 11 13 20 0 5 -8 10 -25 10 -36 0 -12 7 -27 15 -34 8 -7 15 -20 15 -29 0 -10 7 -26 15 -37 8 -10 15 -28 15 -39 0 -11 7 -33 15 -49 8 -15 15 -33 15 -40 0 -6 6 -23 14 -37 7 -14 16 -38 20 -52 11 -44 41 -67 87 -67 37 0 40 2 34 23 -4 12 -11 26 -16 32 -5 5 -9 17 -9 26 0 9 -7 22 -15 29 -8 7 -15 21 -15 32 0 10 -9 40 -21 66 -11 26 -25 58 -30 72 -6 14 -17 38 -25 53 -8 16 -14 35 -14 42 0 14 -20 66 -46 118 -8 16 -14 34 -14 40 0 7 -6 24 -14 39 -8 15 -17 40 -21 57 -4 17 -10 31 -15 31 -5 0 -11 15 -15 33 -4 17 -16 39 -28 48 -20 16 -22 15 -44 -30 -12 -25 -23 -51 -23 -58 0 -6 -8 -26 -17 -45 -30 -59 -33 -68 -33 -80 -1 -7 -9 -31 -20 -53 -11 -22 -19 -48 -20 -57 0 -9 -4 -20 -10 -23 -5 -3 -10 -17 -10 -29 0 -13 -6 -29 -14 -35 -8 -7 -17 -27 -20 -45 -4 -19 -13 -39 -21 -46 -8 -7 -15 -25 -15 -41 0 -15 -5 -31 -10 -34 -6 -3 -10 -20 -10 -36 0 -17 -6 -32 -15 -35 -19 -8 -20 -64 -1 -64 8 0 16 -6 19 -14 10 -25 41 -11 49 22 5 17 13 34 18 37 6 3 10 17 10 29 0 13 7 29 15 36 8 7 17 28 21 48 4 19 13 47 20 61 8 14 14 33 14 41 0 8 7 24 15 34 8 11 15 28 15 37 0 10 5 21 11 25 27 16 40 -64 14 -86 -8 -7 -15 -27 -15 -45 0 -18 -7 -38 -15 -45 -8 -7 -15 -26 -15 -42 0 -16 -6 -31 -15 -34 -10 -4 -15 -20 -15 -44 0 -21 -7 -43 -15 -50 -8 -7 -15 -23 -15 -35 0 -52 -5 -55 -111 -55 -116 0 -123 6 -90 73 12 24 21 50 21 59 0 9 7 18 15 22 9 3 15 18 15 39 0 19 7 40 15 47 8 7 15 22 15 34 0 11 7 30 15 40 8 11 15 30 15 43 0 13 7 26 15 29 9 4 15 19 15 39 0 18 7 38 15 45 8 7 15 22 15 34 0 12 7 31 15 42 8 10 15 29 15 42 0 12 7 25 15 28 9 4 15 19 15 39 0 18 7 38 15 45 8 7 15 24 15 39 0 14 7 35 15 45 8 11 15 28 15 38 0 10 7 21 15 24 10 4 15 20 15 44 0 35 12 50 40 50 15 0 50 -71 50 -101 0 -17 6 -32 15 -35 8 -4 15 -18 15 -34 0 -15 7 -33 15 -40 8 -7 15 -25 15 -40 0 -15 7 -33 15 -40 8 -7 15 -27 15 -45 0 -20 6 -35 15 -39 8 -3 15 -16 15 -29 0 -14 7 -30 15 -37 8 -7 15 -25 15 -40 0 -15 7 -33 15 -40 8 -7 15 -27 15 -45 0 -20 6 -35 15 -39 8 -3 15 -16 15 -29 0 -14 7 -30 15 -37 8 -7 15 -25 15 -40 0 -15 7 -33 15 -40 8 -7 15 -27 15 -44 0 -17 7 -40 15 -50 8 -11 15 -30 15 -43 0 -30 29 -31 31 0 1 12 2 45 3 72 l1 50 264 3 c233 2 265 0 275 -14 11 -14 13 -14 25 0 8 10 29 16 52 16 l39 0 0 378 c0 208 2 381 4 383 7 6 165 3 172 -3z m5364 -93 c0 -27 -27 -40 -47 -23 -11 9 -19 9 -35 -1 -14 -9 -23 -9 -33 -1 -8 7 -28 9 -49 4 -35 -6 -36 -5 -36 24 0 39 13 47 44 27 22 -14 25 -14 39 0 14 13 20 14 38 3 18 -11 23 -10 32 4 10 16 13 16 29 1 10 -9 18 -26 18 -38z m525 14 c4 -17 1 -30 -9 -38 -23 -19 -43 27 -26 59 13 25 25 18 35 -21z m-5195 1 c0 -10 -5 -22 -10 -25 -13 -8 -24 20 -16 41 8 20 26 9 26 -16z m84 14 c10 -25 -3 -56 -22 -52 -21 4 -27 34 -12 53 16 19 26 19 34 -1z m448 -38 c-9 -20 -10 -20 -17 6 -9 34 4 58 17 33 7 -11 7 -25 0 -39z m94 29 c12 -48 -18 -74 -46 -40 -10 12 -10 21 -2 40 15 32 40 32 48 0z m69 14 c4 -6 21 -9 38 -7 24 2 33 -1 35 -16 6 -28 -12 -40 -38 -26 -18 10 -24 9 -34 -6 -17 -23 -36 -10 -36 25 0 38 20 55 35 30z m383 -27 c2 -24 -1 -32 -12 -32 -12 0 -16 10 -16 36 0 45 24 42 28 -4z m90 4 c4 -33 -8 -49 -31 -41 -22 9 -29 33 -16 56 15 29 43 20 47 -15z m66 19 c4 -11 13 -14 30 -9 34 8 51 -3 35 -23 -8 -8 -21 -12 -35 -9 -13 4 -27 0 -34 -9 -17 -20 -30 -10 -30 24 0 40 22 57 34 26z m1046 -5 c16 -29 -5 -64 -33 -56 -12 3 -27 6 -33 6 -15 0 -25 26 -18 44 5 13 23 20 61 25 7 0 17 -8 23 -19z m1304 4 c9 -8 16 -19 16 -24 0 -11 -29 -40 -40 -40 -18 0 -31 39 -20 60 13 24 23 25 44 4z m76 -19 c0 -24 -5 -35 -15 -35 -10 0 -15 11 -15 35 0 24 5 35 15 35 10 0 15 -11 15 -35z m88 -4 c3 -30 1 -32 -25 -29 -34 4 -44 35 -17 55 26 19 39 11 42 -26z m67 22 c12 -16 14 -16 39 0 33 22 46 15 46 -23 0 -36 -13 -45 -35 -24 -12 13 -19 14 -28 5 -28 -28 -64 0 -52 40 8 23 14 24 30 2z m162 0 c24 -16 26 -16 39 2 13 17 15 17 32 1 17 -15 21 -15 32 -1 9 11 17 12 31 4 23 -12 25 -42 3 -59 -12 -11 -18 -10 -31 3 -16 15 -18 15 -35 0 -13 -12 -21 -13 -31 -5 -8 7 -29 9 -50 5 -36 -5 -37 -5 -37 24 0 27 7 43 17 43 2 0 15 -8 30 -17z m227 -6 c7 -11 8 -22 1 -33 -17 -27 -30 -20 -33 20 -4 40 11 46 32 13z m84 -11 c4 -35 -9 -50 -36 -42 -31 10 -37 38 -11 59 28 23 43 17 47 -17z m72 22 c16 -10 24 -10 40 0 27 16 40 8 40 -27 0 -37 -10 -44 -32 -24 -16 14 -23 15 -38 5 -33 -20 -50 -15 -50 16 0 42 9 49 40 30z m390 -34 c0 -15 -25 -36 -33 -27 -9 9 -9 58 0 67 8 8 33 -22 33 -40z m205 29 c12 -16 14 -16 40 1 27 18 29 18 42 0 16 -22 16 -26 -1 -50 -14 -19 -15 -19 -45 3 -28 21 -31 22 -40 5 -9 -15 -12 -15 -21 -2 -11 17 -13 44 -3 53 10 10 15 9 28 -10z m163 1 c18 -12 20 -19 12 -35 -20 -37 -68 -10 -55 31 8 24 14 25 43 4z m222 5 c0 -7 13 -8 39 -4 30 5 40 3 44 -9 12 -31 -4 -49 -38 -43 -18 3 -37 1 -43 -5 -6 -6 -15 -7 -21 -4 -12 8 -15 59 -4 69 10 11 23 8 23 -4z m158 -33 c-2 -12 -10 -21 -18 -21 -16 0 -25 28 -16 52 9 23 38 -4 34 -31z m82 24 c16 -30 -4 -63 -33 -54 -41 13 -47 36 -15 58 29 21 35 20 48 -4z m150 0 c10 -18 -1 -60 -15 -60 -11 0 -25 43 -20 60 8 26 21 25 35 0z m150 10 c0 -14 33 -13 48 2 16 16 42 -7 42 -37 0 -28 -16 -35 -49 -23 -15 5 -28 5 -35 -2 -22 -22 -36 -10 -36 30 0 29 4 40 15 40 8 0 15 -4 15 -10z m158 -34 c-2 -12 -10 -21 -18 -21 -16 0 -25 28 -16 52 9 23 38 -4 34 -31z m-6358 19 c15 -18 6 -45 -15 -45 -18 0 -30 24 -21 45 7 19 20 19 36 0z m2475 -13 c0 -31 -19 -28 -23 4 -3 18 0 25 10 22 7 -3 13 -14 13 -26z m2730 -2 c0 -23 -4 -25 -57 -28 -55 -3 -58 -2 -58 21 0 34 8 38 65 35 46 -3 50 -5 50 -28z m393 -2 c3 -22 -1 -28 -16 -28 -25 0 -46 25 -38 46 10 27 51 13 54 -18z m390 20 c17 -17 -4 -48 -32 -48 -24 0 -37 22 -29 48 6 15 45 16 61 0z m150 -20 c3 -24 0 -28 -22 -28 -30 0 -40 13 -31 41 10 31 49 21 53 -13z m-4808 2 c0 -11 -4 -20 -10 -20 -5 0 -10 9 -10 20 0 11 5 20 10 20 6 0 10 -9 10 -20z m2496 -16 c-5 -13 -10 -14 -18 -6 -6 6 -8 18 -4 28 5 13 10 14 18 6 6 -6 8 -18 4 -28z m-2958 -70 c8 -15 11 -15 35 1 31 20 47 13 47 -21 0 -30 -21 -40 -51 -24 -19 11 -24 9 -39 -10 l-16 -22 -15 21 c-13 19 -16 20 -41 7 -23 -12 -29 -12 -38 -1 -29 35 20 74 55 45 12 -10 16 -9 21 4 8 21 30 21 42 0z m568 3 c31 20 54 10 54 -21 0 -33 -15 -40 -52 -25 -27 11 -32 10 -43 -5 -12 -16 -14 -14 -20 13 -9 40 2 58 23 38 13 -14 17 -14 38 0z m1044 -20 c0 -12 -4 -29 -9 -36 -8 -12 -12 -10 -22 12 -9 21 -9 30 1 42 16 19 30 10 30 -18z m120 13 c8 -14 8 -26 0 -40 -13 -24 -12 -24 -56 -5 -41 17 -43 45 -4 56 41 11 49 10 60 -11z m1309 11 c10 -7 11 -16 4 -37 -13 -38 -40 -43 -49 -10 -11 47 10 69 45 47z m375 3 c21 -8 21 -48 0 -65 -13 -10 -17 -10 -25 2 -10 17 -12 53 -2 62 8 8 8 8 27 1z m86 -27 c0 -12 -4 -29 -9 -36 -8 -12 -11 -9 -16 12 -8 31 0 61 15 52 5 -3 10 -16 10 -28z m88 7 c2 -11 -6 -32 -17 -45 -18 -20 -22 -22 -31 -9 -11 17 -13 63 -3 74 14 14 48 1 51 -20z m70 10 c6 -11 11 -13 16 -5 7 10 66 16 66 6 0 -2 -5 -16 -12 -30 -12 -28 -27 -32 -47 -12 -10 10 -16 7 -30 -12 -16 -21 -19 -21 -24 -6 -4 9 -7 30 -7 46 0 32 23 40 38 13z m148 -9 c8 -32 -13 -60 -32 -44 -15 12 -19 51 -7 62 14 15 33 6 39 -18z m82 2 c2 -10 1 -30 -2 -43 l-6 -24 -30 22 c-35 25 -36 31 -14 53 20 20 48 16 52 -8z m66 17 c22 -8 20 -47 -3 -68 -17 -15 -19 -15 -25 -1 -8 22 -8 60 1 68 8 8 8 8 27 1z m88 -22 c3 -10 -1 -27 -8 -37 -12 -16 -13 -16 -20 9 -7 29 1 60 15 52 5 -3 11 -14 13 -24z m77 19 c16 -10 8 -42 -18 -65 -17 -15 -18 -15 -28 6 -20 44 10 82 46 59z m79 -18 c4 -27 -15 -66 -29 -58 -5 4 -9 24 -9 46 0 33 3 40 18 37 9 -2 18 -13 20 -25z m137 -13 c0 -29 -4 -36 -22 -38 -17 -3 -26 3 -33 22 -10 28 -30 35 -30 11 0 -16 -29 -21 -31 -5 -5 31 -1 35 36 41 71 11 80 8 80 -31z m81 30 c19 -8 30 -7 41 1 11 10 17 9 30 -4 14 -14 15 -21 4 -43 -11 -25 -13 -26 -30 -10 -18 16 -22 16 -50 2 -30 -16 -31 -16 -37 9 -6 24 0 55 10 55 3 0 17 -5 32 -10z m161 -4 c12 -4 24 -2 28 4 10 16 33 12 40 -9 3 -10 1 -31 -5 -47 -11 -27 -12 -28 -25 -11 -9 13 -23 17 -50 15 -45 -4 -68 20 -45 47 7 9 18 14 24 12 6 -2 21 -7 33 -11z m151 -17 c2 -15 -4 -32 -14 -39 -14 -12 -18 -12 -30 5 -26 36 -16 68 21 63 13 -2 21 -12 23 -29z m58 16 c4 -8 3 -27 -1 -42 -5 -21 -8 -24 -16 -12 -12 19 -11 69 1 69 6 0 13 -7 16 -15z m92 -15 c3 -37 -13 -58 -35 -44 -36 22 -28 78 9 72 16 -2 24 -11 26 -28z m152 8 c4 -7 1 -23 -5 -36 -11 -20 -14 -21 -25 -7 -16 19 -29 19 -52 -2 -17 -15 -20 -15 -28 -3 -6 8 -10 27 -10 41 0 25 2 26 57 23 34 -1 59 -8 63 -16z m75 10 c19 -9 28 -9 37 0 31 31 56 -5 38 -54 -10 -25 -13 -27 -23 -13 -19 25 -45 30 -62 12 -15 -15 -18 -14 -36 3 -17 18 -18 21 -3 42 18 26 16 25 49 10z m149 6 c19 -7 21 -45 4 -62 -14 -14 -48 12 -48 38 0 28 14 36 44 24z m76 -28 c0 -38 -14 -55 -24 -30 -11 29 -6 64 9 64 10 0 15 -10 15 -34z m86 19 c11 -27 -5 -65 -26 -65 -13 0 -22 9 -26 25 -8 34 1 55 26 55 11 0 23 -7 26 -15z m-6276 -19 c0 -24 -23 -41 -41 -30 -5 3 -9 16 -9 30 0 19 5 24 25 24 20 0 25 -5 25 -24z m310 16 c0 -13 -12 -22 -22 -16 -10 6 -1 24 13 24 5 0 9 -4 9 -8z m690 -6 c0 -8 -4 -18 -10 -21 -5 -3 -10 -4 -10 -1 0 2 -3 11 -6 20 -4 11 -1 16 10 16 9 0 16 -6 16 -14z m60 -6 c0 -21 -15 -27 -25 -10 -7 12 2 30 16 30 5 0 9 -9 9 -20z m2396 5 c7 -18 -12 -45 -32 -45 -15 0 -28 35 -19 50 9 15 45 12 51 -5z m64 -9 c0 -13 -3 -32 -7 -41 -5 -15 -8 -15 -18 5 -7 13 -10 31 -7 42 7 27 32 22 32 -6z m840 -117 c0 -28 -22 -41 -35 -20 -3 5 -21 7 -40 4 -33 -5 -35 -4 -35 21 0 28 10 32 41 16 15 -8 23 -7 35 5 21 20 34 10 34 -26z m78 -2 c-2 -14 -11 -23 -25 -25 -19 -3 -23 1 -23 26 0 36 8 44 32 31 12 -6 18 -19 16 -32z m112 28 c29 0 36 -4 38 -22 3 -20 -1 -23 -37 -24 -23 -1 -47 -2 -53 -3 -15 -1 -22 28 -14 50 4 10 11 12 18 7 7 -4 29 -8 48 -8z m155 0 c36 0 40 -3 40 -25 0 -24 -3 -25 -55 -25 -45 0 -55 3 -58 18 -5 27 6 49 20 41 7 -5 31 -8 53 -9z m205 -19 c0 -24 -18 -38 -39 -31 -25 8 -27 22 -4 47 12 14 19 15 30 7 7 -6 13 -17 13 -23z m72 10 c10 -15 -10 -46 -32 -46 -23 0 -36 36 -20 55 12 14 40 10 52 -9z m676 -20 c-4 -25 -33 -33 -42 -11 -3 9 -1 25 5 36 8 17 13 18 25 8 8 -7 14 -22 12 -33z m168 13 c9 -16 -21 -43 -40 -36 -16 6 -22 47 -10 60 8 7 40 -8 50 -24z m372 -13 c-2 -11 -11 -22 -20 -24 -14 -3 -18 3 -18 26 0 16 3 32 7 35 11 12 34 -15 31 -37z m-6214 28 c21 -8 21 -40 0 -48 -21 -8 -34 1 -34 23 0 28 9 34 34 25z m714 -21 c-4 -39 -28 -42 -28 -4 0 21 5 31 16 31 11 0 14 -8 12 -27z m178 14 c10 -9 -4 -37 -21 -43 -8 -4 -23 -3 -32 1 -10 4 -30 7 -44 6 -25 -2 -45 20 -35 38 6 8 124 6 132 -2z m131 -3 c3 -8 -1 -23 -10 -32 -15 -14 -17 -14 -23 1 -8 21 1 47 16 47 6 0 13 -7 17 -16z m467 0 c7 -17 0 -34 -14 -34 -11 0 -21 30 -14 41 8 14 21 11 28 -7z m66 -20 c0 -26 -17 -33 -26 -9 -8 20 3 48 16 40 5 -3 10 -17 10 -31z m930 20 c11 -12 11 -18 -2 -31 -19 -18 -38 -10 -38 16 0 33 20 40 40 15z m128 -12 c5 -31 -21 -38 -63 -18 -44 21 -44 34 -2 39 51 6 62 3 65 -21z m682 3 c0 -26 -14 -33 -25 -15 -9 14 1 40 15 40 5 0 10 -11 10 -25z m85 0 c0 -10 -6 -20 -12 -22 -8 -3 -13 5 -13 22 0 17 5 25 13 23 6 -3 12 -13 12 -23z m85 1 c0 -28 -24 -41 -39 -22 -15 18 -3 46 20 46 13 0 19 -7 19 -24z m70 -1 c0 -26 -14 -33 -25 -15 -9 14 1 40 15 40 5 0 10 -11 10 -25z m376 10 c6 -15 -11 -45 -26 -45 -12 0 -20 28 -14 45 8 19 33 19 40 0z m933 -3 c7 -14 5 -21 -10 -30 -25 -16 -39 -7 -39 24 0 29 34 34 49 6z m226 -12 c0 -36 -29 -33 -33 3 -3 23 0 28 15 25 12 -2 18 -12 18 -28z m140 0 c0 -24 -3 -25 -50 -22 -53 2 -71 12 -62 35 4 10 21 14 59 13 50 -1 53 -3 53 -26z m93 3 c2 -14 -3 -23 -17 -28 -28 -9 -41 1 -41 31 0 22 4 25 28 22 19 -2 28 -9 30 -25z m60 0 c-3 -30 -25 -42 -34 -19 -9 22 2 46 21 46 12 0 15 -8 13 -27z m157 6 c10 -30 -1 -37 -55 -37 -39 0 -53 4 -61 19 -16 30 -3 38 56 38 44 -1 55 -5 60 -20z m81 6 c4 -8 3 -23 0 -32 -6 -15 -9 -15 -28 4 -21 22 -18 43 8 43 8 0 17 -7 20 -15z m149 -15 c0 -18 -6 -26 -23 -28 -13 -2 -25 3 -28 12 -10 26 4 48 28 44 17 -2 23 -10 23 -28z m153 3 c-2 -17 -9 -28 -18 -28 -9 0 -16 11 -18 28 -3 22 1 27 18 27 17 0 21 -5 18 -27z m152 -3 c0 -27 -2 -28 -55 -29 -40 0 -57 4 -62 14 -12 32 4 43 61 43 54 -1 56 -1 56 -28z m84 14 c11 -28 7 -34 -24 -34 -22 0 -30 5 -30 18 0 10 3 22 7 25 12 13 41 7 47 -9z m154 -11 c-3 -32 -44 -46 -54 -19 -10 26 4 46 31 46 23 0 26 -4 23 -27z m-5675 2 c4 -8 2 -17 -2 -20 -5 -2 -11 4 -14 15 -6 23 8 27 16 5z m327 -6 c0 -11 -4 -17 -10 -14 -5 3 -10 13 -10 21 0 8 5 14 10 14 6 0 10 -9 10 -21z m466 10 c10 -17 -13 -36 -27 -22 -12 12 -4 33 11 33 5 0 12 -5 16 -11z m534 -15 c0 -8 -7 -14 -15 -14 -15 0 -21 21 -9 33 10 9 24 -2 24 -19z m1660 -5 c0 -5 -7 -9 -15 -9 -9 0 -15 9 -15 21 0 18 2 19 15 9 8 -7 15 -16 15 -21z m-2892 -89 c4 -41 -13 -61 -31 -36 -13 17 -15 17 -45 2 -36 -19 -47 -9 -37 35 5 23 10 28 18 20 16 -16 57 -13 64 4 9 26 28 11 31 -25z m3601 6 c10 -12 8 -19 -9 -36 -27 -27 -44 -22 -48 14 -5 42 4 59 26 47 10 -5 24 -17 31 -25z m211 8 c7 -17 6 -32 -1 -45 -10 -20 -11 -20 -30 -3 -15 13 -22 15 -31 6 -19 -19 -55 -14 -61 7 -10 40 32 68 61 39 10 -9 16 -8 29 5 22 22 22 22 33 -9z m167 -10 c10 -8 7 -16 -12 -34 l-24 -23 -12 25 c-14 33 5 79 24 57 7 -8 18 -19 24 -25z m162 2 c10 -12 8 -19 -9 -36 -27 -27 -44 -22 -48 14 -5 42 4 59 26 47 10 -5 24 -17 31 -25z m471 14 c17 7 32 11 34 9 13 -14 14 -48 3 -63 -13 -18 -15 -18 -41 -1 -20 14 -30 15 -39 6 -21 -21 -37 -12 -37 22 0 43 9 51 31 31 16 -14 23 -15 49 -4z m921 -3 c27 16 30 16 45 1 10 -10 14 -23 9 -37 -7 -24 -26 -27 -55 -9 -15 10 -22 9 -39 -6 -20 -18 -21 -18 -27 0 -4 11 -8 21 -9 24 -2 3 2 16 7 30 l10 25 15 -22 c15 -22 16 -22 44 -6z m-5447 -9 c14 -23 -3 -53 -30 -53 -20 0 -31 33 -20 61 7 19 35 14 50 -8z m61 -11 c0 -39 -19 -38 -23 2 -3 24 0 32 10 29 7 -3 13 -17 13 -31z m90 22 c11 -16 -4 -59 -20 -59 -21 0 -35 31 -24 52 11 20 34 24 44 7z m543 -28 c3 -29 1 -32 -20 -29 -26 3 -35 32 -17 54 18 22 34 12 37 -25z m992 -2 c0 -19 -5 -29 -15 -29 -15 0 -22 50 -9 63 12 12 24 -4 24 -34z m110 6 c0 -33 -2 -35 -34 -35 -36 0 -51 18 -41 51 5 14 16 19 41 19 32 0 34 -2 34 -35z m1780 26 c0 -5 2 -15 5 -23 3 -7 -1 -22 -8 -33 -14 -18 -15 -18 -26 4 -14 26 -6 61 15 61 8 0 14 -4 14 -9z m245 -10 c13 -42 -32 -70 -63 -39 -16 16 -15 23 4 42 21 22 51 20 59 -3z m141 -5 c6 -25 -1 -46 -15 -46 -11 0 -21 38 -14 56 8 22 22 17 29 -10z m154 4 c10 -18 -1 -60 -15 -60 -11 0 -25 43 -20 60 8 26 21 25 35 0z m88 8 c9 -9 15 -9 24 0 18 18 35 14 41 -10 9 -32 -10 -61 -31 -49 -9 5 -30 7 -46 4 -21 -4 -33 -1 -42 12 -26 36 22 75 54 43z m214 -5 c8 -10 8 -20 -1 -40 -11 -25 -12 -25 -32 -7 -15 13 -22 15 -31 6 -30 -30 -78 1 -59 37 9 16 21 20 61 19 29 -1 55 -7 62 -15z m228 2 c18 -21 3 -55 -25 -55 -24 0 -35 20 -27 53 5 21 35 22 52 2z m72 -3 c7 -24 -9 -65 -22 -57 -16 10 -12 75 4 75 7 0 16 -8 18 -18z m83 -17 c0 -25 -4 -30 -27 -33 -25 -3 -28 0 -28 26 0 35 8 44 35 40 15 -2 20 -10 20 -33z m68 23 c3 -10 9 -10 26 0 44 26 80 5 66 -39 -7 -22 -45 -25 -63 -7 -9 9 -15 9 -24 0 -23 -23 -38 -13 -38 23 0 35 23 50 33 23z m149 1 c3 -9 14 -8 42 2 35 12 38 12 48 -5 11 -19 11 -19 25 0 11 14 17 16 31 8 23 -15 27 -48 7 -64 -13 -11 -19 -10 -36 6 -19 17 -21 18 -30 1 -9 -16 -13 -16 -39 -2 -24 12 -33 13 -49 3 -27 -16 -35 -4 -32 45 1 19 27 24 33 6z m236 -26 c-2 -21 -7 -38 -13 -38 -5 0 -11 17 -13 38 -3 29 0 37 13 37 13 0 16 -8 13 -37z m90 8 c4 -28 -21 -53 -44 -44 -14 5 -19 54 -7 67 16 15 48 1 51 -23z m217 12 c9 -12 10 -23 4 -35 -20 -37 -57 -9 -44 33 8 24 24 24 40 2z m-3677 -26 c3 -21 -1 -27 -16 -27 -23 0 -35 33 -19 49 17 17 32 7 35 -22z m1537 3 c0 -13 -6 -25 -12 -27 -9 -3 -13 6 -13 27 0 21 4 30 13 28 6 -3 12 -15 12 -28z m-4200 0 c0 -7 -6 -15 -12 -17 -8 -3 -13 4 -13 17 0 13 5 20 13 18 6 -3 12 -11 12 -18z m537 -12 c-9 -9 -12 -7 -12 12 0 19 3 21 12 12 9 -9 9 -15 0 -24z m-2123 4 c8 -15 4 -23 -19 -40 -38 -28 -50 -28 -50 2 0 47 50 74 69 38z m2210 -78 c22 -16 24 -16 33 0 16 29 38 19 38 -17 0 -42 -9 -51 -30 -32 -12 11 -24 12 -48 6 -29 -9 -33 -7 -38 14 -6 24 1 45 14 45 4 0 18 -7 31 -16z m221 -14 c0 -20 -5 -30 -15 -30 -10 0 -15 10 -15 30 0 20 5 30 15 30 10 0 15 -10 15 -30z m696 15 c5 -12 9 -13 21 -4 10 9 17 9 25 1 16 -16 1 -45 -18 -38 -9 4 -23 1 -30 -5 -18 -15 -34 -3 -34 25 0 36 25 50 36 21z m924 -15 c0 -25 -18 -36 -26 -16 -8 21 3 49 16 41 5 -3 10 -15 10 -25z m1738 6 c2 -9 1 -25 -3 -34 -6 -15 -9 -14 -26 7 -15 18 -17 27 -8 38 15 17 33 12 37 -11z m84 13 c14 -8 23 -8 31 0 17 17 35 13 42 -9 6 -20 7 -20 24 1 17 21 19 21 41 6 22 -15 25 -15 43 1 18 16 20 16 36 -5 18 -21 18 -21 35 -2 22 26 50 21 54 -10 5 -35 -11 -46 -48 -31 -22 9 -34 10 -42 2 -6 -6 -19 -7 -32 -3 -25 9 -94 7 -119 -4 -10 -4 -23 -3 -29 3 -6 6 -21 7 -40 1 -37 -10 -48 -5 -48 25 0 37 15 44 52 25z m382 5 c22 -9 20 -41 -4 -54 -26 -14 -40 -5 -40 24 0 34 12 42 44 30z m71 -24 c0 -13 -6 -25 -12 -27 -16 -6 -27 21 -19 43 9 23 31 11 31 -16z m77 19 c15 -8 27 -8 45 2 20 11 26 11 34 -1 5 -8 8 -24 7 -35 -2 -15 -9 -19 -28 -17 -35 4 -52 4 -75 0 -20 -3 -31 21 -21 48 6 17 11 17 38 3z m149 1 c13 -8 25 -7 40 1 29 15 59 -12 43 -39 -9 -13 -22 -16 -55 -14 -78 6 -97 20 -67 50 15 15 15 15 39 2z m297 -2 c9 -9 18 -9 38 1 32 14 47 3 42 -30 -2 -18 -8 -23 -23 -21 -11 2 -37 3 -57 3 -42 0 -52 10 -43 39 7 22 25 26 43 8z m170 -17 c5 -32 -11 -46 -37 -32 -21 11 -28 41 -14 55 15 15 48 1 51 -23z m60 -3 c-2 -18 -7 -33 -13 -33 -5 0 -11 15 -13 33 -3 24 1 32 13 32 12 0 16 -8 13 -32z m93 11 c9 -17 8 -25 -4 -37 -27 -26 -67 6 -53 43 8 22 44 18 57 -6z m64 12 c3 -5 20 -7 38 -4 23 3 37 0 47 -12 12 -14 12 -18 -1 -26 -8 -5 -27 -9 -44 -9 -16 0 -40 -3 -51 -6 -24 -6 -38 17 -29 47 7 20 30 25 40 10z m151 -1 c8 -8 19 -8 38 0 34 13 46 6 46 -25 0 -31 -12 -38 -45 -25 -17 7 -33 7 -45 0 -23 -12 -44 11 -35 40 7 22 25 26 41 10z m169 -25 c0 -25 -4 -30 -25 -30 -16 0 -26 6 -28 18 -6 30 6 49 30 45 18 -2 23 -9 23 -33z m63 3 c-2 -18 -7 -33 -13 -33 -5 0 -11 15 -13 33 -3 24 1 32 13 32 12 0 16 -8 13 -32z m73 22 c25 -14 24 -36 -1 -50 -26 -14 -40 -5 -40 24 0 36 10 42 41 26z m85 0 c7 -7 19 -8 36 -1 33 12 65 -7 55 -33 -5 -14 -14 -16 -37 -11 -21 5 -39 2 -55 -9 -24 -16 -26 -16 -36 8 -19 41 8 75 37 46z m155 -12 c10 -18 8 -24 -6 -35 -21 -15 -45 -1 -45 27 0 36 33 41 51 8z m-6347 -4 c7 -19 -2 -37 -15 -29 -12 8 -12 45 0 45 5 0 12 -7 15 -16z m546 -10 c0 -8 -4 -14 -10 -14 -5 0 -10 9 -10 21 0 11 5 17 10 14 6 -3 10 -13 10 -21z m238 3 c4 -22 -27 -35 -39 -16 -5 8 -9 20 -9 27 0 20 44 10 48 -11z m684 11 c7 -18 -2 -39 -13 -32 -12 7 -12 44 0 44 5 0 11 -6 13 -12z m756 -10 c-2 -13 -7 -23 -13 -23 -5 0 -11 10 -13 23 -2 15 2 22 13 22 11 0 15 -7 13 -22z m82 2 c0 -13 -7 -20 -20 -20 -19 0 -27 20 -13 33 13 14 33 6 33 -13z m70 0 c0 -11 -4 -20 -10 -20 -5 0 -10 9 -10 20 0 11 5 20 10 20 6 0 10 -9 10 -20z m200 -1 c0 -11 -4 -17 -10 -14 -5 3 -10 13 -10 21 0 8 5 14 10 14 6 0 10 -9 10 -21z m90 1 c0 -13 -7 -20 -20 -20 -13 0 -20 7 -20 20 0 13 7 20 20 20 13 0 20 -7 20 -20z m940 -4 c0 -28 -28 -42 -47 -23 -19 19 -5 47 23 47 19 0 24 -5 24 -24z m535 -1 c0 -13 -8 -21 -22 -23 -19 -3 -23 1 -23 23 0 22 4 26 23 23 14 -2 22 -10 22 -23z m1059 9 c13 -33 -18 -46 -40 -16 -12 16 -13 16 -19 0 -8 -20 -50 -24 -60 -8 -4 6 -4 17 -1 25 8 22 112 21 120 -1z m-1544 -15 c0 -11 -4 -17 -10 -14 -5 3 -10 13 -10 21 0 8 5 14 10 14 6 0 10 -9 10 -21z m698 -110 c-1 -13 -7 -23 -13 -22 -13 3 -18 30 -11 50 10 24 29 1 24 -28z m195 27 c41 -1 53 -11 39 -33 -5 -8 -41 -14 -103 -15 l-94 -3 -3 29 c-4 28 -3 29 36 24 22 -3 45 -2 53 2 7 5 17 6 22 3 5 -3 28 -6 50 -7z m159 2 c39 5 40 4 36 -24 -4 -34 -31 -43 -58 -19 -16 14 -18 14 -23 0 -8 -20 -33 -19 -41 1 -10 25 12 56 31 45 9 -5 34 -6 55 -3z m114 -2 c15 -12 17 -18 8 -33 -24 -38 -67 -10 -50 33 7 18 17 18 42 0z m599 4 c18 -7 33 -7 45 0 15 8 21 6 29 -8 17 -32 -3 -47 -60 -47 -55 0 -70 13 -55 51 6 17 7 17 41 4z m223 -31 c-1 -13 -7 -23 -13 -22 -13 3 -18 30 -11 50 10 24 29 1 24 -28z m212 27 c27 6 30 4 30 -19 0 -33 -14 -42 -34 -21 -15 14 -17 14 -32 0 -22 -22 -51 -20 -59 4 -10 31 11 51 41 40 13 -5 37 -7 54 -4z m178 -26 c3 -30 2 -32 -20 -25 -23 7 -36 7 -73 3 -15 -2 -21 4 -23 26 -4 28 -3 29 37 22 24 -4 42 -2 46 5 12 19 30 3 33 -31z m152 5 c0 -32 -16 -40 -30 -15 -9 16 -8 25 0 36 16 18 30 9 30 -21z m-5560 15 c13 -8 13 -11 -2 -27 -21 -20 -45 -5 -35 21 7 18 16 20 37 6z m70 -15 c0 -16 -6 -25 -15 -25 -9 0 -15 9 -15 25 0 16 6 25 15 25 9 0 15 -9 15 -25z m158 2 c4 -20 -25 -34 -40 -19 -8 8 -18 6 -34 -5 -31 -20 -54 -10 -54 22 0 24 2 25 62 22 50 -2 64 -6 66 -20z m682 -3 c0 -8 -4 -14 -10 -14 -5 0 -10 9 -10 21 0 11 5 17 10 14 6 -3 10 -13 10 -21z m68 -2 c3 -17 -2 -22 -17 -22 -16 0 -21 6 -21 26 0 33 33 30 38 -4z m102 18 c12 -7 12 -13 4 -27 -23 -38 -72 -24 -59 16 7 22 30 27 55 11z m144 -3 c17 -13 17 -14 1 -30 -20 -21 -34 -22 -41 -2 -7 17 2 45 14 45 4 0 16 -6 26 -13z m1426 -18 c0 -20 -15 -26 -25 -9 -9 15 3 43 15 35 5 -3 10 -15 10 -26z m88 7 c6 -29 -15 -43 -35 -24 -14 14 -14 20 -3 33 16 19 34 15 38 -9z m81 11 c15 -19 -10 -53 -33 -44 -16 6 -22 38 -9 50 10 11 30 8 42 -6z m77 -2 c7 -18 -14 -47 -27 -39 -5 3 -9 16 -9 30 0 27 27 34 36 9z m82 -10 c-2 -14 -7 -26 -13 -26 -5 0 -11 12 -13 26 -2 18 1 25 13 25 12 0 15 -7 13 -25z m57 0 c0 -10 -6 -20 -12 -22 -8 -3 -13 5 -13 22 0 17 5 25 13 23 6 -3 12 -13 12 -23z m543 -3 c-3 -26 -5 -27 -58 -26 -52 0 -55 2 -58 26 -3 25 -2 26 58 27 61 1 61 0 58 -27z m87 18 c3 -6 3 -19 0 -31 -10 -31 -49 -21 -53 14 -3 23 0 27 22 27 14 0 28 -5 31 -10z m605 -14 c0 -34 -18 -42 -29 -14 -10 27 -6 38 15 38 8 0 14 -10 14 -24z m308 -4 c4 -25 -23 -41 -40 -24 -6 6 -23 8 -38 5 -16 -3 -36 -1 -46 5 -12 7 -21 6 -29 -2 -6 -6 -36 -11 -66 -11 -51 0 -54 2 -57 26 l-3 26 138 -1 c135 -1 138 -1 141 -24z m87 18 c11 -18 -15 -50 -41 -50 -26 0 -40 20 -30 45 6 17 61 21 71 5z m55 -14 c0 -31 -14 -40 -30 -21 -15 18 -6 45 15 45 9 0 15 -9 15 -24z m235 -6 c0 -20 -5 -25 -25 -25 -20 0 -26 6 -28 28 -3 26 -1 28 25 25 22 -2 28 -8 28 -28z m160 20 c13 -20 -6 -50 -31 -50 -26 0 -40 20 -30 45 6 17 51 20 61 5z m382 -6 c8 -20 -21 -49 -41 -41 -9 4 -16 18 -16 32 0 20 5 25 25 25 14 0 28 -7 32 -16z m158 -14 c0 -33 -39 -40 -55 -10 -15 27 -4 42 28 38 21 -2 27 -8 27 -28z m-6277 3 c-5 -25 -28 -28 -28 -4 0 12 6 21 16 21 9 0 14 -7 12 -17z m1762 -4 c0 -11 -4 -17 -10 -14 -5 3 -10 13 -10 21 0 8 5 14 10 14 6 0 10 -9 10 -21z m1440 1 c0 -13 -7 -20 -20 -20 -13 0 -20 7 -20 20 0 13 7 20 20 20 13 0 20 -7 20 -20z m-1490 -102 c0 -11 -38 -48 -49 -48 -13 0 -19 43 -9 69 8 22 8 22 33 4 13 -10 25 -21 25 -25z m1810 -3 c0 -6 -6 -20 -14 -30 -14 -19 -15 -19 -26 6 -9 21 -9 32 0 50 12 22 13 22 26 4 8 -10 14 -24 14 -30z m828 -5 c-3 -39 -23 -51 -33 -21 l-6 21 -29 -21 c-35 -26 -50 -18 -50 27 0 29 3 34 24 34 13 0 29 -7 36 -15 11 -14 15 -13 28 6 19 27 34 12 30 -31z m184 28 c7 7 20 12 30 12 14 0 18 -8 18 -35 0 -37 -18 -46 -50 -25 -10 6 -20 4 -31 -6 -14 -13 -18 -13 -29 1 -15 18 -41 20 -57 4 -16 -16 -33 -2 -33 27 0 26 31 47 38 26 5 -17 37 -15 52 3 12 14 15 14 32 -2 14 -13 21 -14 30 -5z m296 -11 c9 -11 7 -19 -12 -36 -14 -13 -29 -20 -35 -16 -12 7 -15 67 -5 78 8 8 36 -7 52 -26z m62 -12 c0 -37 -17 -56 -31 -34 -12 20 -11 53 3 67 17 17 28 5 28 -33z m600 1 c0 -41 -9 -50 -31 -30 -11 10 -19 12 -24 5 -19 -31 -81 8 -64 40 11 22 39 25 57 7 10 -9 16 -9 29 4 22 23 33 14 33 -26z m153 -1 c0 -40 -20 -53 -34 -23 -8 19 -8 31 1 48 15 27 33 14 33 -25z m199 23 c23 23 38 13 38 -23 0 -36 -15 -46 -37 -24 -9 9 -18 8 -38 -5 -42 -28 -70 7 -45 55 11 19 12 19 40 2 23 -13 32 -15 42 -5z m190 -6 c3 -10 1 -28 -4 -41 -8 -23 -9 -23 -30 -5 -15 14 -22 16 -25 7 -6 -18 -48 -16 -62 1 -9 11 -10 20 -1 35 13 25 42 27 60 6 11 -14 14 -13 27 5 16 22 28 20 35 -8z m158 -15 c0 -14 -20 -47 -29 -47 -15 0 -22 50 -10 72 11 21 12 21 25 3 8 -10 14 -23 14 -28z m-5507 20 c3 -8 1 -20 -4 -28 -6 -10 -9 -7 -9 14 0 29 5 35 13 14z m147 -18 c0 -27 -2 -30 -15 -19 -11 9 -12 17 -4 31 14 27 19 24 19 -12z m324 -20 c-25 -28 -34 -23 -34 16 l0 35 25 -16 c24 -16 25 -18 9 -35z m380 36 c6 -18 -2 -45 -15 -45 -5 0 -9 14 -9 30 0 32 14 40 24 15z m226 -15 c0 -16 -4 -30 -10 -30 -5 0 -10 14 -10 30 0 17 5 30 10 30 6 0 10 -13 10 -30z m1683 8 c8 -12 7 -21 -2 -32 -23 -28 -41 -19 -41 20 0 28 4 35 16 32 9 -2 22 -10 27 -20z m157 -14 c0 -33 -2 -35 -27 -32 -47 5 -39 68 8 68 15 0 19 -7 19 -36z m56 12 c6 -25 -1 -46 -15 -46 -11 0 -21 38 -14 56 8 22 22 17 29 -10z m394 -17 c0 -33 -23 -40 -39 -12 -7 13 -5 23 6 35 20 23 33 14 33 -23z m148 2 c-2 -26 -7 -35 -18 -32 -8 3 -33 5 -55 5 -30 1 -41 5 -43 19 -7 35 4 43 62 43 l57 1 -3 -36z m467 29 c4 -7 13 -6 26 1 31 16 51 4 47 -28 -3 -26 -6 -27 -60 -29 l-58 -2 0 34 c0 27 4 34 19 34 11 0 23 -5 26 -10z m303 -2 c9 -9 18 -8 38 2 23 13 27 12 36 -4 9 -15 12 -16 26 -3 11 10 34 14 67 13 44 -2 50 -5 53 -25 5 -35 -14 -49 -33 -25 -14 18 -16 18 -26 2 -12 -22 -42 -23 -59 -3 -10 13 -14 12 -30 -7 -15 -19 -20 -20 -34 -9 -10 8 -28 11 -46 8 -25 -6 -31 -3 -36 18 -10 40 17 60 44 33z m309 -3 c19 -13 22 -13 27 0 8 21 34 18 41 -5 3 -10 1 -29 -6 -42 l-12 -22 -16 21 -17 21 -28 -21 c-35 -25 -51 -10 -47 46 1 21 29 22 58 2z m301 -21 c2 -21 -2 -33 -12 -37 -26 -10 -46 4 -46 32 0 34 8 43 35 39 14 -2 21 -12 23 -34z m147 15 c5 -14 1 -27 -9 -37 -15 -15 -17 -15 -32 0 -20 20 -10 58 16 58 10 0 22 -10 25 -21z m393 -8 c4 -23 -19 -51 -40 -51 -15 0 -26 44 -16 63 14 27 52 18 56 -12z m151 10 c7 -13 6 -24 -3 -37 -12 -15 -16 -16 -30 -5 -23 20 -21 61 4 61 10 0 24 -8 29 -19z m-6274 -19 c0 -31 -19 -28 -23 4 -3 18 0 25 10 22 7 -3 13 -14 13 -26z m304 -19 c1 -7 -6 -13 -14 -13 -17 0 -18 4 -8 39 6 23 7 23 14 5 4 -10 8 -25 8 -31z m921 16 c0 -17 -4 -28 -10 -24 -5 3 -10 17 -10 31 0 13 5 24 10 24 6 0 10 -14 10 -31z m377 15 c3 -8 1 -20 -5 -26 -15 -15 -43 8 -35 28 7 19 32 18 40 -2z m233 -4 c0 -11 -4 -20 -10 -20 -5 0 -10 9 -10 20 0 11 5 20 10 20 6 0 10 -9 10 -20z m1898 11 c18 -11 11 -45 -10 -49 -17 -3 -34 30 -23 48 7 12 16 12 33 1z m-2949 -10 c9 -6 10 -11 2 -15 -13 -8 -31 1 -31 15 0 11 11 11 29 0z m-539 -96 c11 -14 15 -14 29 0 15 13 20 13 39 -1 27 -19 28 -30 1 -44 -14 -8 -24 -8 -33 -1 -7 6 -29 8 -49 4 -28 -4 -38 -2 -43 11 -7 18 12 46 31 46 7 0 18 -7 25 -15z m900 -15 c0 -25 -18 -36 -26 -16 -8 21 3 49 16 41 5 -3 10 -15 10 -25z m88 -3 c3 -23 0 -27 -22 -27 -21 0 -26 5 -26 23 0 13 3 27 7 31 15 14 38 0 41 -27z m450 1 c-2 -18 -7 -33 -13 -33 -5 0 -11 15 -13 33 -3 24 1 32 13 32 12 0 16 -8 13 -32z m90 3 c5 -32 -11 -46 -37 -32 -24 13 -27 31 -9 49 19 19 43 10 46 -17z m1742 -1 c0 -16 -5 -30 -10 -30 -14 0 -24 26 -16 45 10 26 26 16 26 -15z m84 14 c20 -19 20 -28 1 -44 -21 -17 -55 -3 -55 24 0 39 26 48 54 20z m64 -17 c2 -19 -1 -27 -12 -27 -20 0 -29 16 -21 41 9 27 29 19 33 -14z m540 1 c3 -27 1 -28 -42 -29 -25 -1 -52 -2 -58 -3 -14 -1 -23 28 -15 47 3 7 26 12 58 12 51 0 54 -1 57 -27z m74 21 c15 -8 27 -8 45 2 22 12 26 11 35 -5 9 -16 11 -16 28 -1 23 20 54 16 58 -8 6 -30 -16 -47 -44 -37 -17 7 -31 6 -44 -2 -15 -9 -22 -10 -31 -1 -6 6 -26 9 -44 6 -27 -4 -34 -2 -40 16 -6 19 0 41 11 41 3 0 15 -5 26 -11z m316 -22 c3 -26 1 -27 -42 -28 -25 -1 -52 -2 -58 -3 -14 -1 -23 28 -15 47 3 8 25 12 58 11 51 0 54 -2 57 -27z m147 -1 c0 -30 -1 -30 -55 -30 -44 0 -56 3 -58 18 -7 33 4 41 59 41 53 0 54 0 54 -29z m75 19 c11 -13 16 -13 42 3 28 16 30 16 40 -2 10 -18 11 -19 24 -1 19 26 66 13 62 -18 -3 -18 -9 -22 -43 -22 -22 0 -46 -4 -52 -8 -7 -4 -22 -3 -33 3 -11 6 -31 8 -45 4 -27 -7 -42 13 -31 41 7 19 20 19 36 0z m236 6 c5 -5 34 -5 68 -1 69 10 76 8 76 -25 0 -27 -14 -40 -32 -29 -18 11 -101 12 -115 1 -19 -14 -33 1 -33 34 0 29 16 38 36 20z m289 -27 c0 -21 -4 -28 -15 -25 -16 5 -58 4 -80 -1 -15 -3 -25 25 -17 45 3 8 25 12 58 11 53 0 54 -1 54 -30z m95 26 c13 -7 21 -7 25 0 11 18 32 11 39 -12 8 -32 -5 -40 -66 -41 -43 -1 -53 2 -56 16 -8 42 18 59 58 37z m148 -23 c2 -19 -1 -27 -12 -27 -18 0 -40 36 -31 51 13 19 40 4 43 -24z m147 -1 c0 -28 -1 -29 -57 -31 -60 -1 -71 6 -62 42 5 16 14 19 62 18 56 -1 57 -1 57 -29z m72 23 c8 -8 17 -8 33 1 31 17 52 5 48 -27 -2 -21 -8 -27 -23 -25 -37 5 -60 5 -74 1 -16 -4 -26 23 -17 47 6 17 18 18 33 3z m164 0 c15 -7 24 -7 34 1 19 16 35 4 35 -25 0 -28 -17 -42 -32 -27 -7 7 -19 7 -36 1 -34 -13 -52 -5 -52 24 0 38 15 46 51 26z m144 -3 c23 -16 14 -46 -15 -46 -23 0 -35 22 -26 45 7 19 17 19 41 1z m82 3 c8 -8 16 -7 30 2 30 18 55 5 51 -28 -3 -26 -6 -28 -41 -25 -21 2 -44 -1 -52 -8 -11 -9 -16 -7 -25 10 -21 39 8 78 37 49z m-6187 -23 c0 -33 -16 -42 -29 -17 -16 29 -13 41 9 41 15 0 20 -7 20 -24z m150 0 c0 -30 -16 -42 -35 -26 -11 9 -12 17 -4 31 14 27 39 24 39 -5z m924 8 c8 -22 -4 -40 -15 -23 -11 18 -11 39 0 39 5 0 12 -7 15 -16z m216 -15 c0 -20 -15 -26 -24 -10 -8 13 4 42 15 35 5 -3 9 -14 9 -25z m308 8 c2 -10 -3 -17 -12 -17 -18 0 -29 16 -21 31 9 14 29 6 33 -14z m230 1 c-2 -13 -7 -23 -13 -23 -5 0 -11 10 -13 23 -2 15 2 22 13 22 11 0 15 -7 13 -22z m635 1 c3 -13 0 -22 -9 -26 -20 -8 -36 10 -28 30 9 24 31 21 37 -4z m57 6 c0 -8 -7 -15 -15 -15 -16 0 -20 12 -8 23 11 12 23 8 23 -8z m58 -7 c-4 -28 -24 -34 -31 -9 -6 22 0 31 20 31 9 0 13 -8 11 -22z m862 -3 c0 -18 -5 -25 -19 -25 -24 0 -33 13 -25 34 10 27 44 20 44 -9z m305 15 c4 -6 4 -18 1 -27 -6 -14 -9 -14 -26 2 -11 10 -20 22 -20 27 0 12 38 10 45 -2z m-3747 -128 c2 -22 -1 -32 -11 -32 -20 0 -39 44 -24 59 18 18 32 7 35 -27z m62 -3 c0 -19 -5 -29 -15 -29 -15 0 -22 50 -9 63 12 12 24 -4 24 -34z m88 2 c3 -29 1 -32 -20 -29 -26 3 -38 45 -16 59 21 14 33 5 36 -30z m990 -2 c-1 -13 -7 -23 -13 -22 -13 3 -18 30 -11 50 10 24 29 1 24 -28z m90 3 c3 -27 0 -32 -17 -32 -30 0 -45 34 -25 55 23 22 38 14 42 -23z m452 -3 c0 -19 -5 -29 -15 -29 -15 0 -22 50 -9 63 12 12 24 -4 24 -34z m85 5 c0 -24 -4 -29 -25 -29 -31 0 -40 33 -14 52 26 19 39 11 39 -23z m1753 -3 c-4 -32 -34 -40 -43 -11 -8 25 11 51 31 43 9 -3 14 -16 12 -32z m792 24 c39 0 45 -3 48 -23 6 -42 -35 -40 -51 3 -2 6 -13 -1 -24 -14 -24 -29 -53 -23 -53 12 0 28 9 39 24 30 6 -4 31 -7 56 -8z m1922 2 c35 5 38 4 38 -19 0 -35 -8 -39 -40 -23 -24 13 -30 13 -40 0 -20 -25 -40 -18 -40 13 0 35 8 44 28 33 8 -5 33 -6 54 -4z m-5842 -28 c0 -31 -16 -37 -51 -19 -13 7 -25 7 -38 1 -14 -8 -22 -7 -31 4 -9 11 -16 12 -30 3 -14 -9 -22 -9 -34 1 -36 30 -18 38 84 38 l100 1 0 -29z m65 6 c0 -28 -29 -25 -33 3 -3 19 0 23 15 20 10 -2 18 -12 18 -23z m625 -5 c0 -35 -17 -40 -29 -7 -10 26 -6 37 15 37 9 0 14 -11 14 -30z m518 22 c15 -10 5 -42 -13 -42 -18 0 -28 17 -21 35 6 17 15 18 34 7z m240 -20 c-2 -8 -8 -17 -14 -19 -13 -4 -27 24 -19 37 9 14 36 -1 33 -18z m234 16 c6 -16 -1 -38 -12 -38 -11 0 -21 30 -14 41 8 13 21 11 26 -3z m392 4 c3 -5 2 -19 -1 -31 -6 -25 -31 -25 -47 2 -8 14 -8 20 4 27 19 12 37 13 44 2z m114 -19 c-3 -24 -7 -27 -41 -29 -28 0 -41 4 -48 18 -15 28 -3 38 47 38 43 0 45 -1 42 -27z m82 1 c0 -8 -6 -14 -14 -14 -18 0 -29 27 -13 33 16 6 27 -1 27 -19z m788 -1 c3 -22 -28 -40 -48 -28 -12 7 -13 38 -3 49 15 14 48 1 51 -21z m155 13 c3 -8 -1 -22 -8 -33 -13 -17 -14 -17 -23 7 -5 14 -8 28 -5 33 7 12 31 8 36 -7z m55 -13 c-4 -33 -24 -41 -31 -12 -7 27 -1 39 19 39 11 0 14 -8 12 -27z m86 21 c18 -7 21 -30 6 -39 -18 -11 -50 6 -50 26 0 19 16 24 44 13z m66 -4 c11 -7 12 -14 4 -27 -16 -25 -31 -27 -39 -4 -11 35 6 50 35 31z m238 -18 c-3 -26 -6 -27 -57 -27 -54 0 -69 10 -58 39 4 9 24 14 62 15 56 1 56 1 53 -27z m152 3 c0 -32 -8 -35 -66 -27 -40 6 -50 11 -52 29 -3 19 2 21 57 22 58 0 61 -1 61 -24z m228 -1 c4 -27 -26 -40 -46 -20 -21 20 -8 48 20 44 14 -2 24 -11 26 -24z m160 -1 c-3 -27 -5 -28 -58 -28 -52 1 -55 2 -58 28 -3 27 -3 27 58 27 61 0 61 0 58 -27z m65 15 c6 -18 -12 -50 -24 -43 -15 10 -11 55 5 55 8 0 16 -6 19 -12z m85 -15 c-3 -32 -44 -46 -54 -19 -10 26 4 46 31 46 23 0 26 -4 23 -27z m158 15 c9 -14 -7 -48 -23 -48 -8 0 -17 9 -20 21 -6 20 -6 20 -29 -2 -28 -26 -54 -19 -54 15 0 23 3 24 60 23 34 0 63 -4 66 -9z m78 3 c11 -17 -6 -41 -29 -41 -23 0 -40 24 -29 41 3 5 16 9 29 9 13 0 26 -4 29 -9z m213 -7 c8 -22 -13 -42 -29 -26 -9 9 -16 8 -30 -5 -16 -14 -24 -15 -48 -6 -18 7 -32 7 -36 2 -12 -21 -34 -8 -34 20 l0 29 85 1 c69 1 87 -2 92 -15z m158 6 c3 -6 4 -19 0 -29 -5 -16 -14 -19 -63 -16 -53 2 -57 4 -60 28 -3 27 -2 27 57 27 33 0 63 -5 66 -10z m152 -10 c5 -25 -13 -44 -33 -35 -11 4 -31 7 -45 6 -28 -2 -63 24 -54 40 3 5 34 8 68 6 46 -1 62 -6 64 -17z m83 -4 c0 -14 -4 -28 -10 -31 -16 -10 -50 14 -50 35 0 16 7 20 30 20 25 0 30 -4 30 -24z m147 9 c6 -21 -14 -33 -62 -36 -48 -4 -50 -3 -53 23 -3 27 -3 27 54 25 32 -1 59 -6 61 -12z m158 5 c4 -6 4 -19 0 -30 -5 -17 -14 -19 -63 -16 -53 3 -57 5 -60 28 -3 25 -1 26 57 27 33 0 63 -4 66 -9z m152 -10 c2 -8 -1 -22 -7 -30 -8 -13 -13 -13 -30 -2 -13 8 -34 10 -54 7 -26 -5 -35 -3 -40 10 -10 27 0 32 66 31 47 -1 63 -5 65 -16z m83 -5 c0 -31 -26 -43 -47 -22 -21 21 -9 47 22 47 20 0 25 -5 25 -25z m-5590 -6 c0 -11 -4 -17 -10 -14 -5 3 -10 13 -10 21 0 8 5 14 10 14 6 0 10 -9 10 -21z m785 11 c3 -5 3 -15 0 -20 -7 -12 -45 5 -45 20 0 13 37 13 45 0z m683 -12 c-2 -13 -10 -23 -18 -23 -8 0 -16 10 -18 23 -3 17 2 22 18 22 16 0 21 -5 18 -22z m140 4 c3 -9 -2 -13 -14 -10 -9 1 -19 9 -22 16 -3 9 2 13 14 10 9 -1 19 -9 22 -16z m1124 -24 c-9 -9 -12 -7 -12 12 0 19 3 21 12 12 9 -9 9 -15 0 -24z m-3264 -77 c5 -52 -12 -58 -35 -12 -22 44 -20 53 12 49 15 -2 21 -12 23 -37z m60 -3 c-2 -24 -7 -43 -13 -43 -5 0 -11 19 -13 43 -3 33 0 42 13 42 13 0 16 -9 13 -42z m90 -4 c-4 -35 -32 -39 -36 -6 -4 27 17 57 30 44 5 -5 8 -22 6 -38z m80 34 c28 -28 2 -88 -33 -74 -15 5 -22 66 -8 79 10 11 28 8 41 -5z m70 -32 c-2 -15 -7 -28 -13 -29 -12 -2 -19 38 -10 60 9 25 27 1 23 -31z m90 4 c4 -37 -7 -53 -31 -44 -25 9 -31 43 -11 65 24 26 38 19 42 -21z m90 -2 c4 -19 -26 -50 -42 -45 -13 4 -20 51 -12 74 6 14 9 14 29 0 12 -8 23 -21 25 -29z m122 -4 c0 -24 -5 -34 -15 -34 -10 0 -15 10 -15 33 0 19 3 37 6 40 13 13 24 -5 24 -39z m90 0 c0 -22 -5 -34 -14 -34 -17 0 -26 42 -14 64 14 25 28 9 28 -30z m90 2 c0 -28 -24 -51 -45 -42 -18 6 -20 57 -3 74 17 17 48 -4 48 -32z m60 11 c0 -12 -4 -29 -9 -36 -8 -12 -11 -9 -16 12 -8 31 0 61 15 52 5 -3 10 -16 10 -28z m177 -4 c6 -16 -32 -57 -45 -49 -13 8 -17 68 -5 79 7 8 45 -15 50 -30z m123 -9 c0 -24 -4 -34 -12 -32 -15 5 -22 42 -14 64 10 25 26 5 26 -32z m85 6 c0 -35 -21 -53 -31 -26 -9 23 5 68 19 63 7 -2 12 -19 12 -37z m315 19 c0 -5 9 -4 20 3 16 10 23 10 36 -4 25 -24 11 -52 -23 -45 -18 3 -31 0 -39 -11 -6 -8 -16 -12 -22 -8 -12 7 -17 68 -6 79 8 8 34 -3 34 -14z m138 -21 c-2 -24 -7 -43 -13 -43 -5 0 -11 19 -13 43 -3 33 0 42 13 42 13 0 16 -9 13 -42z m166 23 c20 -22 14 -56 -10 -65 -24 -9 -34 2 -34 38 0 50 15 59 44 27z m256 -1 c7 12 14 12 27 4 31 -20 27 -41 -8 -41 -19 0 -35 -6 -41 -16 -17 -32 -38 -20 -38 21 0 48 8 57 32 35 17 -15 20 -15 28 -3z m118 -24 c-2 -15 -7 -28 -13 -29 -12 -2 -19 38 -10 60 9 25 27 1 23 -31z m161 30 c17 -21 10 -70 -11 -74 -24 -5 -40 31 -28 62 11 29 22 33 39 12z m81 -32 c0 -24 -5 -34 -15 -34 -10 0 -15 10 -15 33 0 19 3 37 6 40 13 13 24 -5 24 -39z m120 12 c0 -31 -12 -44 -40 -46 -43 -4 -50 -1 -50 23 0 31 11 44 40 49 36 6 50 -1 50 -26z m173 -6 c2 0 14 9 27 20 27 24 43 15 43 -25 0 -40 -18 -52 -43 -30 -17 15 -24 16 -45 7 -22 -10 -25 -9 -31 13 -3 14 -3 33 1 42 6 16 8 16 25 -4 10 -13 20 -23 23 -23z m217 0 c3 -40 1 -50 -13 -50 -24 0 -36 42 -19 68 17 26 29 19 32 -18z m150 -6 c0 -24 -5 -34 -15 -34 -10 0 -15 10 -15 33 0 19 3 37 6 40 13 13 24 -5 24 -39z m153 1 c0 -30 -7 -40 -22 -30 -12 7 -15 58 -4 68 11 12 26 -10 26 -38z m91 9 c8 -26 -14 -57 -36 -49 -27 11 -30 36 -6 62 23 24 32 22 42 -13z m150 10 c9 -33 -1 -64 -19 -64 -20 0 -29 43 -15 69 15 28 26 26 34 -5z m84 -14 c4 -41 -9 -56 -37 -41 -25 14 -27 38 -4 63 23 25 37 18 41 -22z m147 10 c6 -20 -3 -50 -16 -50 -13 0 -31 50 -25 67 7 17 34 6 41 -17z m63 -14 c-2 -15 -7 -28 -13 -29 -12 -2 -19 38 -10 60 9 25 27 1 23 -31z m80 32 c14 -14 16 -64 2 -73 -19 -12 -50 15 -50 44 0 41 22 55 48 29z m72 -34 c0 -24 -5 -34 -15 -34 -10 0 -15 10 -15 33 0 19 3 37 6 40 13 13 24 -5 24 -39z m179 12 c10 -12 8 -19 -9 -36 -23 -23 -38 -23 -54 2 -7 11 -6 24 2 43 10 21 15 24 30 16 10 -5 24 -17 31 -25z m131 14 l23 -20 22 20 c26 24 35 18 35 -26 0 -31 -20 -59 -27 -38 -12 33 -21 36 -42 15 -28 -28 -45 -23 -49 13 -3 26 3 56 11 56 2 0 14 -9 27 -20z m151 10 c21 -12 25 -50 7 -68 -18 -18 -48 4 -48 37 0 41 9 48 41 31z m77 -41 c-2 -19 -7 -33 -13 -32 -12 3 -19 49 -10 71 10 26 27 -2 23 -39z m165 37 c21 -16 22 -40 1 -60 -22 -22 -39 -20 -52 8 -8 18 -7 28 4 45 17 24 23 25 47 7z m149 -3 c23 -21 23 -36 -1 -57 -26 -23 -41 -13 -41 28 0 48 12 57 42 29z m76 -34 c-2 -22 -8 -34 -18 -34 -19 0 -26 51 -9 71 18 21 31 3 27 -37z m77 35 c24 -25 16 -59 -15 -59 -19 0 -26 6 -28 23 -7 48 13 65 43 36z m77 -12 c7 -24 -9 -65 -22 -57 -11 7 -14 68 -4 78 10 9 21 0 26 -21z m146 -12 c5 -48 -10 -54 -46 -19 -23 23 -32 27 -32 15 0 -9 5 -16 10 -16 6 0 10 -5 10 -11 0 -6 -12 -9 -27 -7 -24 3 -28 8 -28 33 0 28 3 30 45 36 62 8 65 7 68 -31z m115 20 l27 21 10 -26 c7 -18 7 -33 -1 -46 -10 -19 -10 -19 -36 1 -25 19 -27 19 -45 3 -17 -15 -20 -15 -28 -3 -11 18 -13 54 -3 63 3 4 16 -2 28 -13 l22 -20 26 20z m187 -5 c11 -29 4 -55 -16 -55 -14 0 -20 60 -7 73 10 11 13 9 23 -18z m150 1 c11 -30 2 -66 -16 -66 -15 0 -21 70 -7 83 10 11 13 9 23 -17z m193 1 c14 15 20 15 42 3 22 -12 27 -11 38 3 8 11 20 15 35 11 19 -5 22 -12 20 -37 -4 -42 -31 -57 -58 -32 -20 18 -22 19 -31 2 -10 -16 -12 -16 -36 3 -24 19 -27 19 -44 4 -23 -21 -39 -10 -39 25 0 38 10 45 35 21 20 -18 22 -19 38 -3z m197 -7 c5 -32 -1 -50 -15 -50 -10 0 -15 10 -15 33 0 48 24 62 30 17z m71 20 c12 -7 19 -21 19 -40 0 -25 -4 -30 -24 -30 -18 0 -25 7 -29 27 -5 26 0 53 10 53 2 0 13 -5 24 -10z m89 -33 c0 -15 -20 -47 -30 -47 -11 0 -14 73 -3 84 8 7 33 -21 33 -37z m78 4 c5 -45 -11 -60 -38 -36 -23 21 -26 45 -8 63 22 22 43 9 46 -27z m70 -10 c-2 -15 -9 -26 -18 -26 -16 0 -25 37 -16 62 10 25 38 -5 34 -36z m-5802 15 c7 -28 -2 -49 -17 -41 -12 8 -12 65 1 65 5 0 12 -11 16 -24z m389 -16 c0 -25 -5 -36 -17 -38 -24 -5 -42 32 -28 59 18 32 45 20 45 -21z m153 2 c2 -24 -1 -32 -12 -32 -9 0 -16 8 -16 19 0 11 -3 27 -6 36 -5 13 -2 16 12 13 13 -2 20 -13 22 -36z m232 23 c10 -12 10 -21 1 -41 -17 -38 -45 -28 -49 19 -3 31 0 37 16 37 11 0 25 -7 32 -15z m65 -18 c0 -39 -19 -38 -23 2 -3 24 0 32 10 29 7 -3 13 -17 13 -31z m93 5 c6 -44 -37 -65 -52 -26 -9 22 13 56 32 52 9 -2 18 -14 20 -26z m296 13 c7 -20 -4 -47 -18 -42 -17 6 -20 57 -3 57 8 0 17 -7 21 -15z m151 -18 c0 -39 -19 -38 -23 2 -3 24 0 32 10 29 7 -3 13 -17 13 -31z m93 -5 c4 -38 -20 -54 -45 -29 -23 23 -9 69 20 65 17 -2 23 -11 25 -36z m298 12 c7 -27 -7 -51 -24 -40 -11 7 -22 53 -14 61 13 13 32 3 38 -21z m354 -4 c0 -37 -17 -39 -30 -4 -13 34 -13 34 10 34 16 0 20 -7 20 -30z m216 -6 c-4 -12 -10 -14 -17 -7 -5 5 -7 17 -3 27 4 12 10 14 17 7 5 -5 7 -17 3 -27z m184 2 c0 -41 -12 -51 -40 -36 -35 19 -19 70 22 70 14 0 18 -8 18 -34z m138 0 c3 -20 0 -27 -10 -24 -7 3 -14 17 -16 32 -3 20 0 27 10 24 7 -3 14 -17 16 -32z m225 15 c6 -24 -7 -46 -22 -37 -12 8 -15 39 -4 49 11 12 21 8 26 -12z m235 -13 c-3 -35 -22 -48 -32 -22 -9 24 2 54 20 54 11 0 14 -9 12 -32z m397 12 c3 -10 1 -29 -5 -41 l-12 -22 -24 25 c-16 15 -22 30 -18 41 9 24 51 22 59 -3z m140 -15 c0 -16 -5 -30 -12 -32 -14 -5 -28 40 -18 57 12 19 30 4 30 -25z m382 15 c-3 -11 -1 -23 4 -26 19 -11 8 -25 -18 -22 -44 5 -45 68 -2 68 16 0 20 -5 16 -20z m158 -13 c0 -39 -19 -38 -23 2 -3 24 0 32 10 29 7 -3 13 -17 13 -31z m693 5 c4 -26 -13 -52 -34 -52 -19 0 -36 37 -29 61 10 29 59 22 63 -9z m147 -7 c0 -21 -5 -31 -19 -33 -26 -5 -40 12 -32 43 5 20 12 26 29 23 17 -2 22 -10 22 -33z m155 1 c0 -38 -10 -49 -34 -40 -18 7 -31 47 -21 63 3 6 17 11 31 11 21 0 24 -5 24 -34z m-5730 -111 c0 -42 -21 -47 -38 -10 -17 37 -15 45 13 45 22 0 25 -4 25 -35z m60 6 c0 -38 -18 -49 -29 -19 -10 28 -4 48 15 48 9 0 14 -11 14 -29z m88 -3 c-2 -21 -8 -33 -18 -33 -10 0 -16 12 -18 33 -3 27 0 32 18 32 18 0 21 -5 18 -32z m90 0 c3 -23 -1 -28 -17 -28 -22 0 -46 34 -36 51 4 5 17 9 28 7 16 -2 23 -11 25 -30z m62 3 c0 -40 -18 -49 -30 -16 -11 30 -6 45 16 45 9 0 14 -10 14 -29z m88 5 c2 -10 -1 -23 -7 -29 -15 -15 -46 16 -37 38 8 21 40 15 44 -9z m71 10 c15 -18 3 -46 -20 -46 -14 0 -19 7 -19 30 0 32 19 40 39 16z m79 -9 c2 -10 1 -26 -3 -35 -5 -13 -10 -11 -30 13 -12 17 -21 34 -18 38 9 15 48 2 51 -16z m62 -13 c0 -45 -24 -42 -28 4 -2 24 1 32 12 32 12 0 16 -10 16 -36z m90 7 c0 -34 -18 -51 -31 -30 -17 26 -10 59 11 59 15 0 20 -7 20 -29z m88 -3 c3 -22 -1 -28 -15 -28 -21 0 -47 36 -37 51 3 6 16 9 27 7 16 -2 23 -11 25 -30z m62 2 c0 -35 -25 -41 -33 -8 -7 26 -1 38 19 38 9 0 14 -11 14 -30z m88 6 c2 -10 -1 -23 -7 -29 -14 -14 -41 9 -41 35 0 26 43 21 48 -6z m71 10 c15 -18 3 -46 -20 -46 -14 0 -19 7 -19 30 0 32 19 40 39 16z m81 -14 c0 -41 -10 -45 -37 -16 -27 29 -23 44 13 44 20 0 24 -5 24 -28z m58 -4 c-2 -18 -7 -33 -13 -33 -5 0 -11 15 -13 33 -3 24 1 32 13 32 12 0 16 -8 13 -32z m92 4 c0 -34 -7 -43 -26 -35 -8 3 -14 18 -14 34 0 22 5 29 20 29 15 0 20 -7 20 -28z m88 -4 c3 -22 -1 -28 -15 -28 -21 0 -47 36 -37 51 3 6 16 9 27 7 16 -2 23 -11 25 -30z m62 3 c0 -40 -18 -49 -30 -16 -11 30 -6 45 16 45 9 0 14 -10 14 -29z m88 0 c2 -13 -1 -28 -6 -33 -13 -13 -42 18 -42 43 0 31 44 21 48 -10z m67 19 c8 -13 -4 -50 -16 -50 -13 0 -22 27 -15 45 6 17 22 20 31 5z m63 1 c19 -12 11 -45 -12 -49 -25 -5 -39 12 -31 37 7 22 21 26 43 12z m82 -20 c0 -38 -16 -48 -30 -20 -14 25 -6 49 15 49 10 0 15 -10 15 -29z m85 -1 c0 -31 -31 -39 -40 -11 -8 26 2 43 23 39 11 -2 17 -13 17 -28z m83 -3 c3 -25 0 -28 -20 -25 -17 2 -24 11 -26 31 -3 25 0 28 20 25 17 -2 24 -11 26 -31z m72 4 c0 -40 -18 -49 -30 -16 -11 30 -6 45 16 45 9 0 14 -10 14 -29z m68 20 c21 -13 10 -46 -16 -49 -17 -3 -22 1 -22 21 0 35 13 45 38 28z m88 -6 c6 -14 8 -14 18 1 19 25 50 14 54 -19 4 -31 3 -31 -34 -17 -18 7 -30 7 -40 -1 -18 -15 -34 -3 -34 27 0 27 27 34 36 9z m144 -14 c0 -40 -18 -49 -30 -16 -11 30 -6 45 16 45 9 0 14 -10 14 -29z m88 -3 c3 -23 -1 -28 -17 -28 -22 0 -46 34 -36 51 4 5 17 9 28 7 16 -2 23 -11 25 -30z m70 3 c4 -23 -15 -44 -30 -35 -4 3 -8 19 -8 35 0 24 4 30 18 27 9 -2 19 -14 20 -27z m82 0 c0 -38 -16 -48 -30 -20 -14 25 -6 49 15 49 10 0 15 -10 15 -29z m120 0 c0 -37 -10 -44 -32 -24 -16 14 -21 15 -27 4 -11 -17 -31 -5 -31 18 0 24 4 26 50 28 38 2 40 0 40 -26z m88 5 c2 -10 -1 -23 -7 -29 -14 -14 -41 9 -41 35 0 26 43 21 48 -6z m80 -8 c3 -24 0 -28 -22 -28 -22 0 -26 4 -26 31 0 26 3 30 23 27 16 -2 23 -11 25 -30z m72 -3 c0 -39 -14 -46 -30 -14 -14 25 -6 49 15 49 11 0 15 -10 15 -35z m77 20 c5 -17 -23 -49 -35 -41 -7 4 -12 18 -12 32 0 20 4 25 22 22 12 -2 23 -8 25 -13z m78 -15 c0 -16 -6 -26 -17 -28 -14 -3 -18 3 -18 28 0 25 4 31 18 28 11 -2 17 -12 17 -28z m85 1 c0 -38 -16 -48 -30 -20 -14 25 -6 49 15 49 10 0 15 -10 15 -29z m60 0 c0 -40 -18 -49 -30 -16 -11 30 -6 45 16 45 9 0 14 -10 14 -29z m88 1 c2 -14 -3 -25 -13 -29 -19 -7 -35 12 -35 40 0 28 44 18 48 -11z m67 -7 c0 -43 -29 -40 -33 3 -3 28 0 33 15 30 13 -2 18 -12 18 -33z m85 6 c0 -38 -16 -48 -30 -20 -14 25 -6 49 15 49 10 0 15 -10 15 -29z m75 -1 c0 -18 -6 -26 -22 -28 -20 -3 -23 1 -23 28 0 27 3 31 23 28 16 -2 22 -10 22 -28z m83 1 c4 -23 -15 -44 -30 -35 -4 3 -8 19 -8 35 0 24 4 30 18 27 9 -2 19 -14 20 -27z m76 23 c20 -8 21 -38 1 -54 -12 -10 -16 -8 -25 15 -6 15 -8 31 -4 36 6 11 8 11 28 3z m64 -26 c-3 -36 -15 -42 -31 -17 -13 21 -2 49 18 49 12 0 15 -8 13 -32z m90 0 c3 -23 -1 -28 -17 -28 -19 0 -41 26 -41 50 0 6 12 10 28 8 21 -2 28 -9 30 -30z m60 0 c-2 -18 -7 -33 -13 -33 -5 0 -11 15 -13 33 -3 24 1 32 13 32 12 0 16 -8 13 -32z m90 -1 c2 -18 -2 -29 -12 -33 -22 -9 -46 14 -46 43 0 21 4 24 28 21 21 -2 28 -9 30 -31z m67 -2 c0 -40 -30 -47 -38 -8 -6 34 0 45 21 41 11 -2 17 -13 17 -33z m83 12 c5 -26 -5 -47 -20 -42 -19 7 -40 44 -32 56 10 16 48 6 52 -14z m150 0 c2 -10 1 -25 -2 -34 -6 -14 -8 -14 -24 1 -13 11 -21 13 -29 5 -6 -6 -21 -9 -34 -7 -17 2 -25 10 -27 29 -3 26 -2 27 55 25 47 -1 59 -5 61 -19z m80 14 c23 -14 10 -46 -18 -46 -20 0 -26 6 -28 28 -3 21 1 27 15 27 10 0 24 -4 31 -9z m72 -26 c0 -43 -25 -48 -33 -8 -6 32 -1 43 19 43 9 0 14 -11 14 -35z m79 26 c16 -11 7 -47 -15 -55 -23 -9 -34 2 -34 35 0 30 20 38 49 20z m76 -26 c0 -40 -30 -47 -38 -8 -6 34 0 45 21 41 11 -2 17 -13 17 -33z m80 25 c12 -20 -6 -50 -30 -50 -23 0 -36 23 -28 48 5 14 49 16 58 2z m70 -25 c0 -43 -29 -40 -33 3 -3 28 0 33 15 30 13 -2 18 -12 18 -33z m83 6 c6 -37 -12 -44 -38 -16 -21 22 -22 28 -10 36 23 14 45 6 48 -20z m79 21 c16 -10 6 -49 -14 -56 -22 -9 -33 2 -33 35 0 30 20 38 47 21z m73 -27 c0 -43 -25 -48 -33 -8 -6 32 -1 43 19 43 9 0 14 -11 14 -35z m85 5 c0 -20 -5 -25 -25 -25 -20 0 -26 6 -28 28 -3 26 -1 28 25 25 22 -2 28 -8 28 -28z m70 -5 c0 -40 -30 -47 -38 -8 -6 34 0 45 21 41 11 -2 17 -13 17 -33z m143 12 c2 -10 1 -25 -2 -34 -6 -14 -9 -14 -27 3 -16 14 -22 15 -28 5 -5 -7 -19 -11 -32 -9 -18 2 -25 10 -27 31 l-3 28 58 -3 c46 -2 58 -7 61 -21z m152 -8 c0 -35 -19 -48 -37 -24 -10 15 -16 16 -25 7 -7 -7 -22 -12 -35 -12 -19 0 -23 5 -23 28 0 28 1 29 60 29 59 0 60 -1 60 -28z m88 2 c4 -28 -9 -44 -31 -35 -19 7 -31 39 -22 54 12 20 50 7 53 -19z m67 -6 c0 -40 -30 -47 -38 -8 -6 34 0 45 21 41 11 -2 17 -13 17 -33z m80 1 c0 -38 -18 -43 -39 -11 -20 30 -13 47 17 43 17 -2 22 -10 22 -32z m63 2 c-2 -18 -7 -33 -13 -33 -5 0 -11 15 -13 33 -3 24 1 32 13 32 12 0 16 -8 13 -32z m87 2 c0 -18 -6 -26 -23 -28 -24 -4 -38 18 -28 44 3 9 15 14 28 12 17 -2 23 -10 23 -28z m153 -4 c-2 -22 -7 -30 -18 -27 -23 7 -53 5 -72 -3 -14 -6 -20 -2 -28 19 -6 15 -8 30 -6 34 3 4 33 8 66 8 l61 0 -3 -31z m81 25 c16 -11 7 -47 -15 -55 -23 -9 -34 2 -34 35 0 30 20 38 49 20z m71 -26 c0 -41 -16 -46 -30 -9 -11 29 -6 44 16 44 9 0 14 -11 14 -35z m88 4 c2 -17 -3 -29 -12 -32 -27 -11 -46 4 -46 35 0 26 3 29 28 26 21 -2 28 -9 30 -29z m62 -4 c0 -43 -25 -48 -33 -8 -6 32 -1 43 19 43 9 0 14 -11 14 -35z m90 6 c0 -33 -11 -44 -34 -35 -18 7 -30 39 -21 54 3 5 17 10 31 10 20 0 24 -5 24 -29z"/> <path d="M2734 1205 c-8 -19 2 -45 16 -45 5 0 10 14 10 30 0 31 -16 41 -26 15z"/> <path d="M2742 1116 c1 -10 8 -17 13 -17 15 1 12 24 -3 29 -9 3 -13 -2 -10 -12z"/> <path d="M3824 1146 c-4 -11 -14 -13 -34 -9 -27 5 -29 3 -44 -48 -23 -76 -21 -93 7 -84 55 17 73 16 91 -4 17 -19 46 -29 46 -16 0 4 -7 19 -14 34 -8 15 -18 51 -22 80 -7 53 -20 74 -30 47z"/> <path d="M4495 1311 c-3 -5 4 -13 16 -16 23 -8 34 -1 24 14 -8 13 -32 14 -40 2z"/> <path d="M4668 808 c-7 -21 3 -158 12 -158 9 0 30 55 30 79 0 9 -5 33 -11 54 -10 37 -23 48 -31 25z"/> <path d="M4890 1310 c0 -19 3 -21 12 -12 9 9 9 15 0 24 -9 9 -12 7 -12 -12z"/> <path d="M4887 1233 c-11 -10 -8 -81 2 -88 12 -7 31 26 31 53 0 22 -23 46 -33 35z"/> <path d="M5425 1320 c-8 -13 4 -32 16 -25 12 8 12 35 0 35 -6 0 -13 -4 -16 -10z"/> <path d="M5419 1223 c-7 -17 -8 -38 -2 -53 4 -14 6 -94 3 -178 l-6 -154 -53 -48 c-51 -47 -52 -49 -37 -72 8 -12 29 -32 46 -43 16 -11 33 -27 35 -37 3 -9 13 -22 21 -29 14 -11 18 -10 30 6 12 16 13 52 8 200 -4 99 -7 230 -6 290 0 61 -2 118 -4 128 -8 25 -23 21 -35 -10z"/> <path d="M4877 753 c-10 -16 -1 -123 10 -134 14 -14 43 4 43 27 0 8 5 23 12 34 11 16 9 23 -10 40 -12 11 -22 25 -22 30 0 12 -27 13 -33 3z"/> <path d="M5622 1332 c-7 -5 -12 -26 -12 -48 1 -21 1 -185 1 -364 -1 -179 1 -336 2 -350 5 -32 30 -37 63 -11 33 26 44 26 44 1 0 -11 6 -20 14 -20 29 0 24 18 -15 56 -50 48 -63 94 -54 190 8 81 24 103 92 134 l37 16 -57 35 c-67 40 -72 52 -71 164 1 89 21 145 53 145 10 0 24 7 31 15 8 10 21 13 37 8 19 -4 24 -2 21 8 -3 8 -13 13 -24 12 -10 -1 -26 3 -35 7 -12 7 -22 4 -34 -10 -23 -25 -37 -25 -53 0 -13 22 -20 24 -40 12z"/> <path d="M6591 981 c-6 -11 -11 -27 -11 -36 0 -9 -12 -27 -26 -42 -22 -22 -31 -24 -67 -19 -43 7 -77 30 -77 52 0 7 -4 16 -10 19 -6 4 -10 -8 -10 -29 0 -28 4 -36 18 -36 15 0 18 -9 19 -52 1 -45 5 -56 32 -80 17 -15 38 -28 46 -28 21 0 68 76 62 100 -3 12 5 35 20 57 28 41 41 97 25 107 -6 4 -16 -2 -21 -13z"/> <path d="M1461 1331 c-7 -12 -11 -102 -11 -234 l0 -215 26 -6 c15 -4 39 -4 54 -1 l28 6 4 132 c1 73 1 177 -2 232 l-5 100 -42 3 c-33 2 -44 -1 -52 -17z"/> <path d="M2133 1335 c-21 -14 -21 -22 -24 -349 -4 -312 -5 -335 -23 -355 -14 -15 -31 -21 -62 -21 -38 0 -44 -3 -50 -25 -3 -14 -3 -37 0 -51 7 -26 8 -27 68 -20 34 3 106 6 162 7 56 0 95 3 89 6 -18 7 -16 23 3 23 11 0 14 5 10 16 -3 9 -6 17 -6 20 0 2 -16 10 -35 18 -19 8 -35 21 -35 29 0 8 -6 17 -14 20 -27 11 -36 100 -37 372 -1 268 -4 325 -18 325 -3 0 -16 -7 -28 -15z"/> <path d="M1463 603 c-19 -4 -23 -11 -23 -43 l0 -38 228 -4 c125 -2 229 -2 231 -1 2 2 5 22 5 45 l1 43 -210 1 c-115 1 -220 -1 -232 -3z"/> </g> </svg> 