<?xml version="1.0" standalone="no"?>
<!DOCTYPE svg PUBLIC "-//W3C//DTD SVG 20010904//EN"
 "http://www.w3.org/TR/2001/REC-SVG-20010904/DTD/svg10.dtd">
<svg version="1.0" xmlns="http://www.w3.org/2000/svg"
 width="283.000000pt" height="283.000000pt" viewBox="0 0 283.000000 283.000000"
 preserveAspectRatio="xMidYMid meet">
<metadata>
Created by potrace 1.14, written by Peter Selinger 2001-2017
</metadata>
<g transform="translate(0.000000,283.000000) scale(0.100000,-0.100000)"
fill="#000000" stroke="none">
<path d="M123 1819 c-10 -4 -27 -17 -38 -29 -19 -21 -20 -37 -20 -283 -1 -326
-1 -324 39 -348 27 -17 52 -19 213 -19 197 0 195 -1 185 58 -4 22 -6 22 -178
22 l-174 0 0 259 c0 198 3 260 13 263 10 3 264 3 320 -1 15 -1 17 -17 17 -186
l0 -185 -30 0 -30 0 0 120 c0 65 -5 130 -11 143 -24 54 -121 75 -180 40 -30
-18 -56 -81 -45 -110 7 -18 92 -15 89 4 -3 16 26 38 37 27 5 -5 11 -23 14 -41
6 -31 6 -32 -28 -26 -77 12 -114 -23 -114 -112 -2 -113 28 -133 200 -133 123
-1 127 0 152 25 l26 26 0 219 0 219 -25 24 c-13 14 -32 26 -42 26 -76 5 -376
3 -390 -2z m215 -392 c16 -19 3 -57 -18 -57 -23 0 -36 36 -20 55 15 18 24 19
38 2z"/>
<path d="M755 1683 c-72 -9 -72 -9 -84 -75 -11 -61 -16 -87 -26 -138 -17 -84
-17 -117 0 -133 21 -22 69 -22 90 -1 13 13 14 19 4 25 -12 7 -8 37 41 292 4
20 7 36 6 36 0 -1 -14 -4 -31 -6z"/>
<path d="M852 1678 c-7 -7 -12 -19 -12 -28 0 -43 68 -56 94 -18 14 20 14 24
-1 40 -18 21 -63 24 -81 6z"/>
<path d="M2049 1686 c-3 -3 -23 -6 -46 -7 l-41 -3 -12 -60 c-7 -34 -14 -72
-17 -86 -2 -14 -12 -67 -22 -118 l-18 -93 44 3 c24 1 47 7 52 12 5 6 16 49 26
95 18 94 31 124 48 118 13 -4 14 -41 2 -134 -9 -74 1 -93 50 -93 34 0 78 34
53 42 -10 4 -10 22 1 97 12 85 11 94 -5 112 -19 21 -73 26 -106 8 -19 -10 -20
-9 -14 12 17 65 20 109 5 95z"/>
<path d="M1102 1628 c-6 -29 -14 -64 -16 -78 -17 -92 -38 -198 -42 -213 -5
-16 0 -18 41 -16 25 2 49 8 54 13 4 6 16 52 25 101 18 93 28 115 52 115 27 0
16 -60 -15 -89 -27 -25 -29 -31 -21 -65 11 -51 36 -76 76 -76 45 0 57 24 33
64 -25 41 -24 49 11 84 53 54 32 122 -39 122 -18 0 -42 -5 -53 -11 -19 -10
-20 -9 -15 12 3 13 8 39 12 57 l7 32 -50 0 -49 0 -11 -52z"/>
<path d="M837 1579 c-9 -5 -21 -48 -32 -114 -18 -101 -18 -106 0 -125 22 -24
67 -26 90 -4 11 12 13 20 5 29 -10 12 6 138 26 207 5 15 -1 18 -34 16 -22 -1
-47 -5 -55 -9z"/>
<path d="M1429 1567 c-49 -33 -69 -68 -73 -123 -7 -94 29 -135 107 -120 38 8
42 8 87 0 40 -6 86 19 62 34 -14 9 -12 25 11 153 l14 76 -88 1 c-75 1 -92 -2
-120 -21z m97 -49 c-16 -120 -31 -163 -56 -163 -12 0 -15 14 -14 65 1 81 24
140 55 140 19 0 21 -4 15 -42z"/>
<path d="M1743 1575 c-40 -17 -67 -57 -59 -89 3 -13 26 -40 51 -60 47 -39 54
-56 32 -74 -18 -16 -39 1 -39 31 0 31 -17 39 -49 23 -59 -29 -19 -86 61 -86
59 0 106 29 118 72 11 42 0 64 -44 90 -47 28 -58 51 -35 72 16 15 19 15 31 1
7 -8 10 -24 7 -35 -4 -17 0 -20 24 -20 22 0 32 7 41 26 11 23 10 29 -11 45
-27 22 -82 24 -128 4z"/>
<path d="M2310 1579 c-57 -23 -91 -78 -93 -145 -1 -83 43 -121 129 -111 52 5
84 30 84 64 0 27 0 27 -36 8 -37 -19 -58 -19 -74 0 -21 25 -4 50 37 53 60 4
97 32 101 74 2 28 -2 40 -20 52 -25 18 -89 20 -128 5z m75 -59 c-4 -19 -16
-35 -31 -42 -32 -15 -38 -6 -24 36 21 64 69 69 55 6z"/>
<path d="M2494 1575 c-4 -8 -3 -23 1 -32 6 -16 11 -64 19 -183 2 -33 5 -35 42
-38 35 -3 46 3 87 38 51 45 111 153 105 190 -4 30 -29 45 -60 37 -22 -6 -26
-13 -30 -64 -3 -32 -16 -81 -29 -108 l-24 -50 -3 75 c-3 91 -7 114 -28 134
-20 20 -73 21 -80 1z"/>
<path d="M562 1178 c-9 -4 -12 -7 -7 -9 32 -6 1718 -3 1722 3 2 5 -4 8 -14 9
-104 5 -1688 2 -1701 -3z"/>
<path d="M373 1092 c-21 -14 -28 -42 -25 -96 4 -66 19 -68 17 -2 -2 44 -1 46
26 46 26 0 28 -3 31 -47 2 -36 7 -49 21 -51 9 -2 17 1 17 7 0 6 -5 10 -12 9
-19 -5 -19 71 1 82 15 9 15 9 -1 10 -9 0 -19 10 -21 23 l-4 22 -2 -22 c-1 -17
-7 -23 -26 -23 -32 0 -34 27 -2 32 17 2 19 5 6 10 -9 3 -20 3 -26 0z"/>
<path d="M111 1076 c-20 -24 -9 -50 27 -62 42 -13 59 -31 45 -45 -13 -13 -41
-15 -72 -5 -15 5 -21 5 -17 -2 9 -15 61 -25 86 -17 16 5 20 14 18 32 -3 26 -9
32 -61 52 -24 9 -26 14 -17 31 11 20 33 22 59 6 9 -6 12 -5 9 5 -6 20 -62 23
-77 5z"/>
<path d="M1003 1018 l2 -73 37 -1 c48 -1 78 25 78 69 0 18 -6 41 -12 50 -16
20 -68 34 -68 18 0 -6 3 -10 8 -10 39 6 67 -27 57 -71 -6 -28 -18 -36 -65 -45
-21 -4 -22 -2 -18 65 3 50 0 70 -8 70 -9 0 -12 -22 -11 -72z"/>
<path d="M1492 1020 c2 -62 6 -75 21 -78 9 -2 17 2 17 8 0 6 -4 8 -10 5 -11
-7 -12 -1 -14 74 0 27 -5 53 -9 57 -4 5 -7 -25 -5 -66z"/>
<path d="M2019 1074 c0 -8 -1 -39 -1 -69 0 -30 1 -62 1 -70 1 -13 23 -15 136
-15 l135 0 0 85 0 84 -135 0 c-110 0 -135 -3 -136 -15z m158 -10 c-3 -3 -12
-4 -19 -1 -8 3 -5 6 6 6 11 1 17 -2 13 -5z m71 -1 c-10 -2 -28 -2 -40 0 -13 2
-5 4 17 4 22 1 32 -1 23 -4z m-135 -30 c-13 -2 -35 -2 -50 0 -16 2 -5 4 22 4
28 0 40 -2 28 -4z m54 1 c-3 -3 -12 -4 -19 -1 -8 3 -5 6 6 6 11 1 17 -2 13 -5z
m76 -1 c-13 -2 -33 -2 -45 0 -13 2 -3 4 22 4 25 0 35 -2 23 -4z m-65 -30 c-10
-2 -26 -2 -35 0 -10 3 -2 5 17 5 19 0 27 -2 18 -5z m70 0 c-10 -2 -26 -2 -35
0 -10 3 -2 5 17 5 19 0 27 -2 18 -5z m-153 -30 c-9 -36 -10 -37 -34 -23 -25
13 -27 26 -7 33 10 4 13 1 10 -7 -3 -8 -1 -17 5 -20 6 -4 13 5 17 19 3 14 8
25 11 25 3 0 2 -12 -2 -27z m35 -9 c0 -8 -4 -14 -8 -14 -4 0 -8 9 -8 19 0 11
4 17 8 15 4 -3 8 -12 8 -20z m110 10 c0 -2 -9 -4 -20 -4 -11 0 -20 4 -20 9 0
5 9 7 20 4 11 -3 20 -7 20 -9z m-50 -24 c0 -5 -7 -7 -15 -4 -8 4 -15 8 -15 10
0 2 7 4 15 4 8 0 15 -4 15 -10z m70 2 c0 -4 -13 -7 -30 -7 -16 -1 -30 3 -30 7
0 4 14 8 30 8 17 0 30 -3 30 -8z"/>
<path d="M236 1035 c-37 -37 -2 -104 48 -91 36 9 50 39 34 74 -16 32 -58 41
-82 17z m62 -7 c20 -20 14 -58 -10 -68 -18 -6 -27 -4 -40 11 -33 38 15 92 50
57z"/>
<path d="M491 1003 c28 -65 36 -72 50 -37 l11 29 12 -28 c14 -33 24 -26 50 37
21 51 12 60 -11 10 -9 -22 -19 -41 -21 -44 -7 -11 -22 27 -19 50 2 14 2 19 0
12 -4 -10 -8 -9 -19 5 -12 16 -13 15 -8 -14 3 -17 2 -39 -4 -48 -8 -15 -12
-10 -27 29 -10 25 -21 46 -26 46 -5 0 1 -21 12 -47z"/>
<path d="M655 1040 c-4 -6 6 -7 25 -4 29 6 30 5 29 -22 -3 -34 10 -78 19 -69
9 9 2 78 -10 93 -12 14 -54 16 -63 2z"/>
<path d="M760 996 c0 -33 3 -56 7 -52 10 10 12 79 2 96 -5 10 -9 -6 -9 -44z"/>
<path d="M785 1040 c-3 -5 -2 -10 4 -10 5 0 13 5 16 10 3 6 2 10 -4 10 -5 0
-13 -4 -16 -10z"/>
<path d="M836 1034 c-20 -20 -20 -43 0 -72 17 -25 56 -29 74 -7 15 18 7 19
-19 3 -15 -9 -23 -9 -35 1 -26 22 -19 31 23 31 47 0 55 9 35 38 -18 26 -56 29
-78 6z m62 -6 c20 -20 14 -28 -23 -28 -24 0 -35 5 -35 14 0 24 39 33 58 14z"/>
<path d="M1150 1031 c-5 -11 -10 -28 -10 -39 0 -22 30 -52 51 -52 17 0 60 29
44 30 -6 0 -15 -4 -21 -10 -12 -12 -51 -2 -58 16 -4 11 6 14 43 14 37 0 49 4
47 14 -6 45 -76 64 -96 27z m68 -3 c20 -20 14 -27 -23 -26 -32 1 -45 15 -28
31 10 11 38 8 51 -5z"/>
<path d="M1272 1003 c11 -27 24 -52 29 -57 8 -9 49 72 49 96 0 19 -14 -2 -32
-45 -14 -36 -17 -39 -23 -22 -19 57 -28 75 -36 75 -4 0 1 -21 13 -47z"/>
<path d="M1374 1025 c-21 -33 -6 -71 31 -81 24 -6 62 12 50 24 -2 3 -11 -1
-19 -7 -11 -9 -20 -10 -35 -1 -34 18 -24 30 24 30 49 0 59 15 29 44 -24 24
-61 20 -80 -9z m60 9 c31 -12 18 -33 -19 -32 -37 1 -42 7 -23 26 14 14 20 14
42 6z"/>
<path d="M1556 1034 c-20 -20 -20 -43 0 -72 19 -27 48 -28 74 -2 32 32 9 90
-36 90 -12 0 -30 -7 -38 -16z m62 -6 c31 -31 -9 -96 -43 -68 -20 17 -25 49 -8
65 18 18 35 19 51 3z"/>
<path d="M1670 972 c0 -40 4 -71 8 -68 4 2 7 28 7 58 -2 55 8 78 31 78 21 0
43 -29 39 -52 -6 -27 -24 -39 -50 -32 -16 5 -17 4 -8 -6 8 -9 20 -10 40 -3 22
7 29 17 31 41 4 42 -17 63 -62 60 l-36 -3 0 -73z"/>
<path d="M1801 1031 c-6 -11 -11 -28 -11 -39 0 -22 30 -52 51 -52 17 0 60 29
44 30 -6 0 -16 -5 -22 -11 -14 -14 -53 -2 -53 16 0 9 15 15 45 17 44 3 44 3
32 28 -17 33 -71 40 -86 11z m67 -3 c20 -20 14 -28 -20 -26 -44 2 -51 7 -37
24 14 17 41 18 57 2z"/>
<path d="M1916 1000 c1 -61 14 -80 14 -22 0 32 5 44 21 52 11 7 18 14 15 17
-3 3 -12 0 -21 -7 -10 -8 -15 -9 -15 -1 0 6 -4 11 -8 11 -4 0 -7 -23 -6 -50z"/>
<path d="M648 992 c-24 -28 30 -69 56 -42 8 10 6 11 -13 5 -33 -10 -47 15 -20
36 17 13 18 16 5 16 -9 0 -22 -7 -28 -15z"/>
<path d="M2017 895 c-8 -18 -1 -21 46 -20 23 0 37 -4 37 -12 0 -7 -5 -13 -11
-13 -5 0 -8 -4 -5 -8 6 -10 132 -9 142 1 4 4 -1 7 -11 7 -13 0 -15 3 -6 13 6
7 26 13 46 12 28 -2 35 2 35 16 0 18 -10 19 -134 19 -108 0 -135 -3 -139 -15z"/>
</g>
</svg>
