<?xml version="1.0" standalone="no"?>
<!DOCTYPE svg PUBLIC "-//W3C//DTD SVG 20010904//EN"
 "http://www.w3.org/TR/2001/REC-SVG-20010904/DTD/svg10.dtd">
<svg version="1.0" xmlns="http://www.w3.org/2000/svg"
 width="525.000000pt" height="525.000000pt" viewBox="0 0 525.000000 525.000000"
 preserveAspectRatio="xMidYMid meet">
<metadata>
Created by potrace 1.14, written by Peter Selinger 2001-2017
</metadata>
<g transform="translate(0.000000,525.000000) scale(0.100000,-0.100000)"
fill="#000000" stroke="none">
<path d="M2555 4417 c-11 -7 -22 -14 -25 -17 -3 -3 -25 -14 -50 -25 -25 -11
-63 -31 -85 -46 -22 -14 -56 -35 -74 -45 -40 -22 -66 -41 -92 -68 -11 -11 -19
-16 -19 -12 0 4 -6 1 -13 -6 -8 -7 -31 -26 -52 -43 -46 -35 -245 -229 -245
-239 0 -3 -13 -18 -28 -33 -16 -16 -38 -44 -50 -63 -11 -20 -32 -49 -46 -65
-14 -16 -33 -45 -43 -64 -10 -20 -28 -50 -40 -66 -12 -17 -45 -80 -73 -140
-28 -61 -56 -118 -61 -127 -5 -10 -9 -22 -9 -27 0 -5 -5 -22 -11 -38 -6 -15
-10 -29 -10 -31 1 -1 -6 -16 -14 -32 -9 -17 -13 -30 -11 -30 3 0 1 -11 -4 -25
-5 -14 -12 -37 -15 -50 -6 -30 -13 -62 -21 -95 -9 -41 -14 -73 -18 -115 -3
-22 -5 -40 -6 -40 -2 0 -4 -23 -5 -51 -1 -28 -4 -55 -7 -60 -7 -13 -2 -322 7
-374 4 -25 8 -57 9 -72 0 -16 5 -28 9 -28 5 0 6 -3 3 -8 -2 -4 2 -33 9 -65 7
-31 11 -57 8 -57 -3 0 -1 -6 5 -12 5 -7 12 -26 15 -43 3 -16 10 -45 16 -62 5
-18 7 -33 3 -33 -4 0 -2 -4 3 -8 6 -4 19 -32 29 -62 40 -116 149 -339 188
-384 10 -11 24 -32 30 -48 18 -39 39 -44 63 -14 12 14 26 26 32 26 6 0 15 8
18 18 4 9 32 40 64 67 31 28 65 60 75 73 17 23 17 24 -22 90 -54 90 -82 144
-82 159 0 6 -5 13 -10 15 -6 2 -12 13 -13 26 0 12 -5 22 -9 22 -4 0 -7 3 -6 8
0 4 -2 16 -6 27 -24 63 -28 74 -26 77 1 2 -4 17 -10 33 -7 17 -14 38 -16 48
-2 9 -6 27 -9 40 -14 59 -27 126 -32 167 -2 25 -6 50 -6 55 -1 6 88 10 251 10
l254 0 0 -732 0 -732 61 -39 c80 -51 189 -114 202 -116 6 -1 21 -8 33 -15 13
-7 27 -10 30 -6 4 4 7 819 7 1811 0 1598 -2 1804 -15 1803 -8 0 -24 -6 -35
-12z m-280 -1109 c0 -282 -3 -515 -7 -518 -5 -4 -469 -5 -502 -1 -4 1 -5 18
-1 39 7 34 15 90 17 120 1 6 4 12 8 12 3 0 6 8 6 18 1 23 9 56 32 129 11 34
17 64 14 67 -3 3 0 6 6 6 7 0 12 8 12 18 0 9 9 32 20 50 11 17 17 32 15 32 -3
0 7 24 22 53 15 28 26 55 25 60 -1 4 2 7 6 7 5 0 14 16 22 35 8 19 17 35 21
35 3 0 12 14 19 30 7 17 17 30 23 30 6 0 8 3 4 6 -6 6 51 88 103 149 45 53
124 135 130 135 3 0 5 -231 5 -512z"/>
<path d="M2712 2620 c0 -996 2 -1810 5 -1810 12 0 207 103 220 116 8 8 19 14
24 14 5 0 19 9 31 20 12 10 25 17 30 14 9 -6 25 54 19 71 -7 21 -6 61 2 72 4
6 3 14 -3 18 -8 5 -8 10 0 20 8 10 8 15 0 20 -8 5 -8 10 0 20 8 9 8 15 0 20
-6 3 -7 12 -3 18 9 15 12 47 3 47 -3 0 -6 9 -6 20 0 11 4 20 9 20 5 0 5 6 -1
13 -7 8 -7 18 -2 27 5 8 5 21 0 30 -6 11 -5 21 2 28 9 9 9 12 0 12 -9 0 -10 5
-3 18 6 11 6 24 1 32 -5 9 -5 19 2 27 6 7 6 13 1 13 -10 0 -10 60 0 77 4 6 3
15 -3 18 -8 5 -8 11 0 20 8 10 8 15 0 20 -8 5 -8 10 0 20 8 9 8 15 0 20 -6 3
-7 12 -3 18 10 17 11 47 1 53 -4 3 -4 13 1 23 6 10 6 23 1 31 -5 9 -5 19 2 27
7 9 7 13 -1 13 -8 0 -9 5 -2 17 5 10 5 26 0 40 -6 15 -5 23 2 23 8 0 8 4 1 13
-7 8 -7 18 -2 27 5 8 6 18 3 23 -9 14 -9 87 0 87 5 0 5 6 1 12 -12 19 -12 48
-1 48 5 0 5 5 -1 13 -7 8 -7 18 -2 27 5 8 5 21 0 30 -6 11 -5 21 2 28 8 8 8
12 1 12 -6 0 -8 12 -6 28 5 31 5 35 1 85 -2 20 1 37 6 37 4 0 3 6 -3 14 -9 11
-9 17 2 27 10 10 43 14 125 13 l111 -1 115 -115 c63 -64 113 -122 112 -129
-16 -81 -72 -240 -109 -309 -16 -30 -29 -57 -29 -60 1 -3 -9 -21 -21 -40 -66
-107 -66 -108 -49 -116 10 -4 20 -6 25 -6 4 1 7 -2 7 -7 0 -5 8 -11 18 -15 9
-3 24 -10 32 -15 30 -21 189 -111 194 -111 3 0 6 4 6 10 0 5 12 26 26 47 54
80 162 308 168 356 2 11 7 22 12 25 5 4 11 14 12 22 2 8 5 22 7 30 2 8 12 49
23 90 11 41 22 91 26 110 3 19 8 51 11 71 6 34 3 39 -104 148 -61 63 -111 118
-111 124 0 6 -3 8 -6 4 -3 -3 -17 6 -30 21 l-23 27 139 140 c150 151 143 139
126 230 -3 17 -7 39 -9 50 -5 29 -18 77 -24 95 -9 23 -13 43 -16 67 -1 13 -6
23 -11 23 -5 0 -6 3 -3 6 3 4 1 16 -6 28 -6 11 -12 26 -12 31 -1 6 -6 19 -12
30 -6 11 -13 29 -14 40 -2 11 -6 22 -9 25 -3 3 -29 55 -59 115 -30 61 -57 112
-60 115 -4 3 -15 22 -26 44 -11 21 -25 40 -32 43 -10 4 -87 -31 -103 -47 -3
-3 -27 -17 -55 -31 -27 -15 -66 -35 -85 -45 -19 -11 -36 -20 -38 -20 -5 -3 25
-64 50 -104 51 -82 135 -277 154 -355 9 -35 10 -40 18 -62 8 -26 -19 -72 -43
-73 -8 0 -12 -2 -9 -5 8 -8 -154 -165 -172 -166 -70 -5 -209 -4 -228 3 -18 6
-21 11 -13 26 6 11 6 24 1 32 -5 9 -5 19 2 27 6 8 7 13 1 13 -6 0 -8 12 -6 28
5 31 5 35 1 85 -2 20 0 37 5 37 4 0 5 6 1 12 -12 19 -12 48 0 48 6 0 6 4 -2
12 -7 7 -8 17 -2 28 5 9 5 22 0 30 -5 9 -5 19 2 27 6 8 7 13 1 13 -10 0 -10
41 0 57 3 5 2 15 -3 23 -4 7 -4 24 0 36 6 14 5 26 0 29 -6 4 -7 13 -1 24 6 10
6 23 1 31 -5 9 -5 19 2 27 7 9 7 13 -1 13 -8 0 -9 5 -2 17 5 10 5 26 0 40 -6
15 -5 23 2 23 8 0 8 4 1 13 -7 8 -7 18 -2 27 5 8 6 21 2 29 -9 20 -8 53 1 68
4 6 3 15 -3 18 -8 5 -8 11 0 20 8 10 8 15 0 20 -8 5 -8 10 0 20 8 9 8 15 0 20
-6 3 -7 12 -3 18 9 15 12 47 3 47 -3 0 -6 9 -6 20 0 11 4 20 9 20 5 0 5 6 -1
13 -7 8 -7 18 -2 27 5 8 5 21 0 30 -6 11 -5 21 2 28 9 9 9 12 0 12 -9 0 -10 5
-3 18 6 11 6 24 1 32 -5 9 -5 19 2 27 6 7 6 13 1 13 -10 0 -10 66 0 76 4 4 2
13 -4 20 -7 8 -7 14 1 19 7 4 7 12 0 25 -7 13 -6 20 1 22 10 3 -38 37 -161
113 -45 27 -130 68 -151 72 -16 2 -17 -136 -17 -1807z"/>
</g>
</svg>
